<?xml version="1.0" standalone="no"?>
<!DOCTYPE svg PUBLIC "-//W3C//DTD SVG 1.1//EN" "http://www.w3.org/Graphics/SVG/1.1/DTD/svg11.dtd" >
<svg xmlns="http://www.w3.org/2000/svg">
<metadata></metadata>
<defs>
<font id="officinaserifcbookitalic" horiz-adv-x="1024" >
<font-face units-per-em="2048" ascent="1638" descent="-410" />
<missing-glyph horiz-adv-x="477" />
<glyph horiz-adv-x="2048" />
<glyph horiz-adv-x="2048" />
<glyph unicode="&#xd;" horiz-adv-x="682" />
<glyph unicode=" "  horiz-adv-x="477" />
<glyph unicode="&#x09;" horiz-adv-x="477" />
<glyph unicode="&#xa0;" horiz-adv-x="477" />
<glyph unicode="!" horiz-adv-x="681" d="M115 109q0 59 39.5 98t97.5 39q62 0 99.5 -43t37.5 -94t-37.5 -94.5t-99.5 -43.5q-58 0 -97.5 39.5t-39.5 98.5zM287.5 551.5q-2.5 8.5 1.5 21.5l127 805q1 10 2.5 14t7.5 7.5t18 3.5h156q26 0 18 -33l-217 -807q-6 -20 -26 -20h-66q-19 0 -21.5 8.5z" />
<glyph unicode="&#x22;" horiz-adv-x="948" d="M332 1450q-2 18 24 18h119q27 0 25 -18l-33 -496q-2 -26 -25 -26h-53q-22 0 -24 26zM635 1450q-2 18 24 18h119q27 0 25 -18l-33 -496q-2 -26 -25 -26h-53q-22 0 -24 26z" />
<glyph unicode="#" horiz-adv-x="1015" d="M14 246l21 100q0 3 8 9.5t12 6.5h146l129 410h-144q-6 0 -8.5 2t-2.5 4t1 6v4l19 101q3 16 22 16h156l129 412q3 14 8 22q5 7 22 7h93q7 0 10.5 -1.5t3.5 -5.5t-0.5 -6.5t-3 -8.5t-2.5 -7l-129 -412h250l129 412q3 14 8 22q5 7 22 7h93q7 0 10.5 -1.5t3.5 -5.5t-0.5 -6.5 t-3 -8.5t-2.5 -7l-129 -412h121q6 0 9 -5t1 -11l-19 -101q-2 -5 -9 -10.5t-13 -5.5h-133l-129 -410h131q17 0 12 -16l-20 -100v-2q-1 -3 -1.5 -4l-1.5 -3t-2.5 -3t-3.5 -2.5t-5 -2t-7 -0.5h-145l-113 -364q-1 -2 -2 -6.5t-2 -6.5t-3 -5.5t-5 -5.5t-8 -3.5t-11 -1.5h-80 q-21 0 -23 12q0 6 3 17l113 364h-250l-113 -364q-1 -2 -2 -6.5t-2 -6.5t-3 -5.5t-5 -5.5t-8 -3.5t-11 -1.5h-79q-23 0 -24 14q0 6 3 15l113 364h-131q-6 0 -10.5 6t-2.5 11zM332 362h250l129 410h-250z" />
<glyph unicode="$" d="M70 92v4q0 6 4 10l51 89q5 10 14 10q6 0 33 -17q62 -36 100 -49q54 -19 105 -22l112 534l-38 31q-33 26 -47.5 38t-38.5 36t-41 49q-60 87 -60 192q0 83 36 154t101 119q97 73 236 76l18 79l1 3q0 2 0.5 3t2 3.5t2.5 4t3.5 3.5t5.5 3t7 2t9 1h53q15 0 19 -7t0 -24 l-19 -71q114 -9 215 -64q29 -16 29 -31q0 -8 -6 -14l-53 -86q-5 -8 -17 -8q-11 0 -33 14q-93 54 -161 64l-101 -471l29 -23q44 -35 72 -62t59 -68.5t46.5 -93.5t15.5 -114q0 -181 -129 -297q-107 -97 -252 -100l-23 -113v-5q-1 -4 -1.5 -4.5t-2 -4t-3 -4t-5 -2t-8.5 -2 t-11 -0.5h-53q-15 0 -17.5 9.5t1.5 20.5l20 103q-45 3 -106 14q-76 15 -156 64q-16 10 -18 24zM412 993q0 -102 100 -180l10 -8l88 412q-73 -10 -127 -56q-71 -59 -71 -168zM479 119q94 18 146.5 90.5t52.5 161.5q0 57 -31 129q-20 45 -57 82l-10 10z" />
<glyph unicode="%" horiz-adv-x="1554" d="M141 879q0 197 106.5 332t254.5 135q92 0 151.5 -58t59.5 -184q0 -194 -104.5 -325.5t-252.5 -131.5q-93 0 -154 57t-61 175zM274 877q0 -119 95 -119q81 0 146 96.5t65 257.5q0 123 -91 123q-84 0 -149.5 -97.5t-65.5 -260.5zM360 -14q0 2 9 20l718 1321q11 19 31 19h88 q21 0 21 -17q0 -4 -8 -20l-719 -1319q-12 -19 -35 -19h-84q-21 0 -21 15zM891 203q0 197 106 332t254 135q92 0 151.5 -58t59.5 -184q0 -194 -104 -325.5t-252 -131.5q-93 0 -154 57t-61 175zM1024 201q0 -119 94 -119q81 0 146 96.5t65 257.5q0 123 -90 123 q-84 0 -149.5 -97.5t-65.5 -260.5z" />
<glyph unicode="&#x26;" horiz-adv-x="1214" d="M76 297q0 191 133 317q75 72 215 144l8 4l-10 14q-109 155 -109 297q0 89 36 160t95 113t129 64t144 22q78 0 136.5 -25t91 -67t48 -88.5t15.5 -96.5q0 -65 -29.5 -135t-73.5 -119q-66 -77 -248 -170l-16 -8l252 -377q89 128 119 256q5 20 10.5 29t7.5 9.5t10 0.5h107 q16 0 19 -7t-1 -26q-14 -68 -63 -174t-135 -201l108 -161q8 -16 8 -19q0 -10 -16 -20l-84 -56q-12 -6 -16 -6q-8 0 -21 17l-92 141l-27 -20q-181 -138 -395 -138q-172 0 -264 90q-92 92 -92 236zM231 313q0 -84 45 -139q32 -39 73 -57.5t104 -18.5q155 0 303 123l24 21 l-276 411l-31 -18q-121 -73 -149 -100q-93 -87 -93 -222zM469 1081q0 -13 1.5 -26t3 -22.5t5.5 -22.5t6 -19t8 -19.5t7 -16.5t8.5 -17.5t7.5 -15.5q15 -29 28.5 -48t22.5 -34l6 -11l23 13q118 64 187 136t69 167q0 67 -38 117.5t-120 50.5q-91 0 -158 -64.5t-67 -167.5z" />
<glyph unicode="'" horiz-adv-x="342" d="M215 1450q-2 18 21 18h126q23 0 21 -18l-31 -496q-2 -15 -5.5 -20.5t-12.5 -5.5h-68q-9 0 -12.5 5.5t-5.5 20.5z" />
<glyph unicode="(" horiz-adv-x="874" d="M213 207q0 112 22.5 230.5t53 208.5t72.5 180.5t70 139.5t56 93q58 89 134.5 183.5t117 138t70.5 73.5q32 29 41 29q2 0 14 -6l56 -41q12 -9 12 -21q0 -4 -2.5 -8t-5.5 -7t-9.5 -9t-9.5 -9q-19 -17 -51.5 -54t-88 -105.5t-120 -170.5t-117.5 -212q-77 -160 -114 -320.5 t-37 -357.5q0 -293 143 -557q8 -16 8 -23q0 -18 -18 -28l-51 -29q-12 -8 -27 -8q-14 0 -37 39q-96 166 -139 336t-43 315z" />
<glyph unicode=")" horiz-adv-x="874" d="M-61 -416q0 3 1 6t4 6.5t5.5 5.5t7.5 7l8 8q18 17 51.5 54.5t88.5 106t119.5 170.5t117.5 212q78 161 115 321t37 357q0 292 -144 557q-8 16 -8 22q0 19 18 29l52 29q12 8 26 8t37 -39q96 -166 139 -336t43 -315q0 -112 -22.5 -230.5t-53 -208.5t-72.5 -180.5t-70 -139.5 t-56 -93q-58 -89 -134.5 -183.5t-117 -138.5t-70.5 -74q-30 -28 -41 -28q-2 0 -14 6l-55 41q-12 9 -12 20z" />
<glyph unicode="*" d="M291 1114q0 6 4 14l27 84q7 23 24 17l229 -94l-18 249q-2 19 25 19h88q26 0 24 -19l-18 -249l221 92q12 4 23 4q3 0 5.5 -1t3.5 -3t1.5 -3.5t1 -4.5t0.5 -5l24 -81q1 -5 4 -11.5t3 -9.5q0 -4 -7 -8l-12 -4l-235 -58l159 -188q10 -16 -10 -31l-70 -51q-8 -8 -14 -8 q-10 0 -16 6l-131 211l-131 -211q-7 -10 -17 -10q-4 0 -12 8l-72 51q-23 16 -10 31l162 190l-242 60q-14 4 -14 14z" />
<glyph unicode="+" d="M45 475v90q0 9 1 14.5t2 8.5t4.5 4.5t5 2t7 0t7.5 -0.5h364v360q0 29 27 29h94q27 0 27 -29v-360h364q2 0 8 0.5t7.5 0t5.5 -2t5 -4.5t2 -8.5t1 -14.5v-90v-5v-7t-1 -5t-3 -5t-5 -3.5t-8 -3t-12 -0.5h-364v-364q0 -29 -27 -29h-94q-27 0 -27 29v364h-364h-6h-5.5t-4.5 1 t-5 3t-3 5t-2.5 8t-0.5 12z" />
<glyph unicode="," horiz-adv-x="417" d="M-96 -213q0 4 4 12l170 414q6 13 11.5 16.5t19.5 3.5h174q8 0 14 -4t6 -10q0 -12 -8 -20l-301 -439q-8 -12 -19 -12q-6 0 -14 4l-43 21q-14 7 -14 14z" />
<glyph unicode="-" horiz-adv-x="606" d="M53 453q-2 11 4 28l19 90q4 25 30 25h424q24 0 17 -33l-21 -96q-4 -17 -11 -21t-19 -4h-422q-19 0 -21 11z" />
<glyph unicode="." horiz-adv-x="606" d="M78 109q0 59 39 98t98 39t98 -39t39 -98t-39.5 -98.5t-97.5 -39.5t-97.5 39.5t-39.5 98.5z" />
<glyph unicode="/" horiz-adv-x="987" d="M-190 -399q0 4 8 20l1069 1831q11 16 35 16h96q20 0 20 -14q0 -3 -10 -20l-1067 -1831q-9 -17 -37 -17h-94q-20 0 -20 15z" />
<glyph unicode="0" d="M88 360q0 333 141 631q170 355 463 355q149 0 228 -103q73 -94 73 -287q0 -140 -29.5 -292t-95 -303t-155.5 -246q-138 -144 -322 -144q-172 0 -250 131q-53 89 -53 258zM244 346q0 -110 39 -168q45 -69 139 -69q182 0 295 260q54 123 87.5 276.5t33.5 310.5 q0 133 -43 189q-48 63 -138 63q-40 0 -78.5 -14t-79 -45t-80 -89.5t-71.5 -139.5q-46 -115 -75 -276t-29 -298z" />
<glyph unicode="1" d="M145 29l17 77q4 21 24 21h201l219 1014l-301 -170q-19 -7 -23 -5.5t-10 11.5l-32 49q-6 9 -3.5 18.5t11.5 14.5l405 246q24 12 39 12h82q19 0 19 -19q0 -3 -1.5 -8.5t-4 -17t-5.5 -25.5l-239 -1120h184q20 0 14 -29l-16 -78q-4 -20 -25 -20h-540q-21 0 -15 29z" />
<glyph unicode="2" d="M29 16q0 32 14 84q17 63 50 135t67 119q17 24 35.5 47t34 41t37 39t34.5 34t36.5 32.5t33 27.5t34.5 27t31 23t32 23t28 20q64 46 102.5 75t84.5 70.5t71 75.5t42 76t17 86q0 72 -38 114.5t-122 42.5q-50 0 -83 -12t-66 -41q-77 -64 -121 -156q0 -1 -2 -4t-3.5 -4.5 l-4.5 -4.5t-6 -4t-8 -1t-11 2l-84 27q-26 8 -14 32l12 27q16 35 39 69.5t60.5 73.5t81.5 67.5t106 47.5t131 19q139 0 219 -70q82 -71 82 -199q0 -198 -164 -344q-68 -59 -237 -176q-77 -53 -125.5 -91.5t-100 -89t-86.5 -107.5t-59 -126h565q23 0 12 -39l-18 -79 q-6 -25 -25 -25h-698q-16 0 -16 16z" />
<glyph unicode="3" d="M16 61q0 9 9 27l43 86l2 2q1 2 2 3.5t4 3t6 1.5q9 0 22 -10q115 -65 222 -65q174 0 266 106q36 41 59 100t23 119q0 98 -60 148q-57 49 -172 49h-94q-17 0 -21 6t1 25l18 81q1 6 2.5 10.5t4 7t4 4.5t5 2.5t4.5 0.5h4.5h4.5h74q147 0 243 100q78 81 78 195q0 66 -43 106 q-42 39 -121 39q-64 0 -121.5 -27.5t-126.5 -88.5q-13 -13 -22 -13q-8 0 -21 13l-53 57q-4 4 -6 8v6q0 7 20 27q55 58 125 94q121 62 230 62q139 0 215 -70q80 -70 80 -184q0 -131 -80 -236q-77 -100 -199 -141l21 -8q161 -64 161 -256q0 -90 -34 -174t-88 -144 q-64 -71 -162 -116.5t-226 -45.5q-141 0 -262 54q-41 16 -41 36z" />
<glyph unicode="4" d="M41 342q0 7 4 27l14 69q1 8 4 14.5t4.5 9.5t5.5 7.5t5 5.5l706 871q11 13 21.5 14t21.5 -4l93 -21q14 -5 14 -14v-4q0 -2 -2.5 -5.5t-3.5 -4.5l-697 -848h385l95 327q6 23 26 23h76q16 0 19 -8t-1 -25l-67 -317h166q24 0 18 -31l-18 -84v-4q-1 -5 -1.5 -5.5t-2 -4t-3 -4 t-5 -2t-8.5 -2t-11 -0.5h-166l-63 -297q0 -1 -1 -4.5t-1.5 -5.5t-2 -5.5t-3.5 -5t-5.5 -3t-7.5 -1.5h-106q-21 0 -21 16q0 4 2.5 14.5t3.5 16.5l58 275h-527q-18 0 -18 20z" />
<glyph unicode="5" d="M62 40.5q1 4.5 4 12.5l24 84q5 21 21 21q2 0 47 -13q109 -36 207 -36q158 0 264 121.5t106 287.5q0 85 -47 135q-49 52 -129 52q-54 0 -119 -25t-118 -68q-4 -4 -11.5 -10.5t-11.5 -10.5t-9.5 -8t-10 -6t-9.5 -2q-2 0 -4.5 1t-6.5 2t-7 2l-57 20q-21 5 -21 23q0 3 8 30 l197 641q7 23 31 23h538q8 0 12 -1.5t7.5 -9.5t-0.5 -24l-19 -84l-1 -2q-1 -3 -1 -4.5t-1.5 -4t-2.5 -4t-3.5 -3.5t-5 -3t-6 -2t-7.5 -1h-431l-135 -410l4 -4l7 4q35 24 58 37t69.5 27t97.5 14q39 0 76.5 -7t79.5 -28t73 -54.5t51.5 -91t20.5 -131.5q0 -102 -35 -197.5 t-94 -168.5q-48 -60 -108 -101.5t-119.5 -59.5t-105 -25t-89.5 -7q-111 0 -254 43q-15 5 -20 13.5t-4 13z" />
<glyph unicode="6" d="M117 309q0 89 19 199t58.5 237t114.5 251t174 210q87 75 178.5 107.5t204.5 32.5q57 0 133 -13q2 0 8.5 -1.5t9 -2t7.5 -2t7.5 -2.5t5.5 -3t4 -5t1 -6q0 -11 -8 -23l-33 -74q-6 -15 -10.5 -19.5t-13.5 -4.5q-6 0 -18 3t-15 3q-40 12 -102 12q-76 0 -144 -28.5t-117 -71 t-91.5 -102.5t-69.5 -114t-49 -114l4 -4q109 127 262 127q131 0 199 -84q67 -82 67 -250q0 -240 -117 -403q-43 -61 -96.5 -103t-106 -59.5t-90.5 -24t-75 -6.5q-142 0 -221 86q-80 87 -80 252zM272 291q0 -87 37 -131q43 -51 127 -51q79 0 139.5 41t98.5 108 q30 55 52 138.5t22 154.5q0 116 -54 170q-40 43 -110 43q-130 0 -211 -111q-101 -140 -101 -362z" />
<glyph unicode="7" d="M137 6q0 5 8 21l691 1147h-539q-18 0 -18 6q0 24 2 32l16 80q6 25 31 25h700q26 0 19 -35l-9 -37q-2 -13 -14 -31l-717 -1224q0 -1 -1.5 -3.5t-2 -3.5t-2 -3t-2 -3t-2.5 -2.5t-4 -2t-5 -1t-6 -0.5t-7 0.5t-9 1.5l-112 19q-13 4 -15 8q-2 2 -2 6z" />
<glyph unicode="8" d="M47 291q0 188 154 303q102 76 227 106q-182 100 -182 285q0 175 133 275q120 86 285 86q152 0 243 -76q88 -74 88 -191q0 -152 -127 -266q-84 -73 -182 -113q223 -109 223 -315q0 -75 -28.5 -146t-81.5 -126q-138 -142 -379 -142q-92 0 -153.5 20.5t-114.5 63.5 q-105 85 -105 236zM203 303q0 -95 69 -147q61 -47 172 -47q140 0 228 75q82 69 82 189q0 92 -72 164q-39 39 -125 77l-18 9l-13 -5q-155 -50 -231 -116q-92 -80 -92 -199zM401 999q0 -69 37.5 -121t110.5 -102l20 -14l9 4q5 2 32.5 15.5t43.5 22.5t41.5 25t47 35t39.5 41 q58 71 58 148t-56 118q-49 37 -135 37q-120 0 -184 -62t-64 -147z" />
<glyph unicode="9" d="M82 10q0 9 4 25l14 74q4 18 21 18q7 0 47 -9t80 -9q177 0 303 137q67 71 117.5 178t64.5 166l2 8l-4 4q-116 -174 -293 -174q-120 0 -194 91.5t-74 250.5q0 106 31.5 207t90 184t153.5 134t212 51q74 0 130 -22t87 -55t50.5 -79t25.5 -86t6 -84q0 -83 -12 -176 t-39 -195.5t-66 -199t-97.5 -184t-129.5 -152.5t-166 -103.5t-202 -38.5q-80 0 -119 11q-43 10 -43 28zM326 764q0 -98 43 -148.5t123 -50.5q131 0 220 124t89 325q0 194 -162 194q-94 0 -167 -65t-109.5 -165t-36.5 -214z" />
<glyph unicode=":" horiz-adv-x="606" d="M78 109q0 59 39 98t98 39t98 -39t39 -98t-39.5 -98.5t-97.5 -39.5t-97.5 39.5t-39.5 98.5zM227 846q0 58 39.5 97.5t98.5 39.5t98 -39.5t39 -97.5t-39 -97.5t-98 -39.5t-98.5 39.5t-39.5 97.5z" />
<glyph unicode=";" horiz-adv-x="606" d="M-16 -213q0 4 4 12l170 414q6 13 11 16.5t19 3.5h174q8 0 14.5 -4t6.5 -10q0 -12 -8 -20l-301 -439q-8 -12 -19 -12q-6 0 -14 4l-43 21q-14 7 -14 14zM242 846q0 58 39 97.5t98 39.5t98 -39.5t39 -97.5t-39 -97.5t-98 -39.5t-98 39.5t-39 97.5z" />
<glyph unicode="&#x3c;" d="M49 471v96q0 24 23 33l827 299q12 6 25 6q12 0 18 -20l33 -94q4 -16 4 -17q0 -14 -18 -18l-660 -236v-4l660 -233q18 -6 18 -21q0 -1 -0.5 -2.5t-1.5 -5t-2 -6.5l-33 -94q-3 -7 -3.5 -8.5t-2.5 -6t-5 -5.5t-7 -1q-7 0 -25 6l-827 299q-23 9 -23 33z" />
<glyph unicode="=" d="M45 334v90q0 9 1 14.5t2 8.5t4.5 4.5t5 2t7 0t7.5 -0.5h876q2 0 8 0.5t7.5 0t5.5 -2t5 -4.5t2 -8.5t1 -14.5v-90v-6v-6t-1 -5t-3 -5t-5 -3.5t-8 -3t-12 -0.5h-876h-6h-5.5t-4.5 1t-5 3t-3 5t-2.5 8t-0.5 12zM45 614v91q0 10 1 16t4.5 8.5t5 3.5t8 0.5t8.5 -0.5h876 q3 0 7.5 0.5t6.5 0.5t5 -1t4.5 -2.5t3 -4.5t2 -8.5t0.5 -12.5v-91v-5v-5.5t-0.5 -4.5t-1.5 -4.5t-3 -3.5t-5.5 -3t-8 -1.5t-10.5 -0.5h-876h-6.5h-7t-5 1.5t-4.5 4.5t-2.5 8.5t-1.5 13.5z" />
<glyph unicode="&#x3e;" d="M70 262q0 15 18 21l660 233v4l-660 236q-18 4 -18 18q0 1 4 17l32 94q6 20 19 20t25 -6l827 -299q22 -8 22 -33v-96q0 -25 -22 -33l-827 -299q-18 -6 -25 -6q-12 0 -19 21l-32 94q-1 3 -2 6.5t-1.5 5t-0.5 2.5z" />
<glyph unicode="?" horiz-adv-x="948" d="M199 109q0 59 39.5 98t97.5 39q62 0 99.5 -43t37.5 -94t-37.5 -94.5t-99.5 -43.5q-58 0 -97.5 39.5t-39.5 98.5zM303 1341q-2 7 0.5 12.5t12.5 11t15 7.5t21 8q159 52 269 52q141 0 225 -72q86 -75 86 -207q0 -171 -137 -283q-99 -82 -256 -114l-41 -195q-3 -20 -25 -20 h-100q-17 0 -17 14q0 7 6 31l52 237q0 2 1 7.5t1.5 7t2 5.5t4 5.5t6.5 4.5t10.5 5t16 4.5t21.5 5.5l31 9q133 35 194.5 99t61.5 163q0 73 -39 112q-43 43 -131 43q-97 0 -227 -49q-12 -4 -21 -4q-6 0 -9.5 2t-4.5 3.5t-2 5.5l-2 3z" />
<glyph unicode="@" horiz-adv-x="1933" d="M158 369q0 204 77 386t207.5 312.5t311.5 206.5t381 76t353 -71.5t238.5 -209.5t85.5 -324q0 -150 -52.5 -281.5t-141.5 -217.5q-63 -61 -148.5 -102.5t-160.5 -41.5q-53 0 -92.5 20.5t-57.5 53.5q-24 46 -24 109h-5q-122 -183 -280 -183q-86 0 -131 64q-45 60 -45 170 q0 98 25.5 196.5t68.5 169.5q52 86 124 132.5t150 46.5q94 0 152 -68l12 -14l21 49q5 12 14 12h98q15 0 11 -22l-101 -469q-6 -30 -6 -35v-19q1 -22 4 -36.5t11 -31.5t25.5 -25.5t43.5 -8.5q50 0 107 29t100 75q64 69 104.5 185t40.5 239q0 225 -143.5 357.5t-394.5 132.5 q-184 0 -342.5 -69t-267.5 -186t-170.5 -273t-61.5 -328q0 -135 38 -246t114.5 -195t200.5 -130t286 -46q293 0 584 136q11 5 20 9.5t13.5 7t9.5 4.5t10 3h8q9 -2 14 -16l25 -60q5 -13 5 -23t-24 -25.5t-79 -37.5q-286 -116 -574 -116q-239 0 -416 83t-276.5 249t-99.5 397z M821 340q0 -111 74 -111q60 0 135 70q82 82 113 225l35 168l-4 4q-66 66 -134 66q-34 0 -70.5 -23.5t-64.5 -68.5q-34 -58 -59 -154.5t-25 -175.5z" />
<glyph unicode="A" horiz-adv-x="1130" d="M-113 14q0 4 1.5 8.5t4 11t3.5 11.5l16 61q4 21 22 21h86l650 1257q1 1 3 5.5t4 6.5t6.5 4.5t10.5 2.5h115q11 0 16.5 -4.5t6 -8t2.5 -14.5l114 -1249h105q7 0 10.5 -1.5t5.5 -7.5q1 -2 1 -6q0 -6 -3 -14l-16 -78q-4 -20 -25 -20h-387q-18 0 -18 14q0 3 8 31l16 61 q4 21 23 21h120l-24 295h-436l-148 -295h125q7 0 10.5 -1.5t5.5 -8t-2 -19.5l-16 -78q-4 -20 -24 -20h-373q-19 0 -19 14zM395 559h357l-35 455q-6 74 -6 194h-4q-24 -78 -82 -194z" />
<glyph unicode="B" horiz-adv-x="1120" d="M-39 14q0 3 8 31l17 61q4 21 22 21h135l244 1149h-137q-17 0 -17 14q0 3 7 31l16 61q4 21 25 21h403q61 0 85.5 -1t81 -6.5t96.5 -21.5t71 -43q74 -63 74 -186q0 -134 -73 -245t-210 -163v-4q85 -21 136.5 -91.5t51.5 -172.5q0 -169 -110 -309q-73 -90 -169 -125 t-218 -35h-520q-19 0 -19 14zM307 137h180q42 0 66.5 1.5t73.5 18.5t88 50q55 45 84.5 113.5t29.5 134.5q0 190 -235 190h-180zM444 782h129q153 0 230 68q51 44 86 115t35 137q0 74 -35 115q-44 49 -131 49h-211z" />
<glyph unicode="C" horiz-adv-x="964" d="M104 393q0 161 35.5 339t104.5 325q43 92 96 161.5t102.5 109t104 64t96.5 32.5t84 8q102 0 197 -43q41 -17 76.5 -46t35.5 -53q0 -12 -4 -24l-47 -211q-4 -21 -24 -21h-95q-16 0 -16 13q0 8 4 22l37 172l-23 12q-73 41 -151 41q-213 0 -340 -344q-50 -136 -77.5 -295 t-27.5 -284q0 -129 60 -199q54 -63 149 -63q93 0 183 63l20 14l37 172q1 8 2.5 12t7 7.5t14.5 3.5h95q23 0 12 -43l-41 -195q-6 -32 -20 -43q-61 -49 -166.5 -89t-190.5 -40q-158 0 -244 109q-86 108 -86 313z" />
<glyph unicode="D" horiz-adv-x="1175" d="M-39 14q0 3 8 31l17 61q4 21 22 21h135l244 1149h-137q-17 0 -17 14q0 3 7 31l16 61q4 21 25 21h448q211 0 305 -88q101 -95 101 -307q0 -155 -51 -364.5t-132 -352.5q-86 -153 -214.5 -222t-338.5 -69h-419q-19 0 -19 14zM309 137h142q186 0 303 142q74 91 125 240.5 t69.5 272.5t18.5 218q0 134 -56 194q-58 62 -184 62h-180z" />
<glyph unicode="E" d="M-43 14q0 3 8 31l17 61q4 21 22 21h135l244 1149h-137q-17 0 -17 14q0 3 7 31l16 61q4 21 24 21h799q9 1 15 -5q4 -4 4 -10v-4l-62 -286q-4 -23 -24 -23h-95q-18 0 -18 12q0 3 4 19l33 160h-389l-99 -469h426q25 0 17 -31l-17 -82q-5 -25 -28 -25h-428l-111 -522h404 l41 195q0 6 5.5 14t18.5 8h100q15 0 11 -22l-64 -307q-6 -25 -31 -25h-813q-18 0 -18 14z" />
<glyph unicode="F" horiz-adv-x="960" d="M-39 14q0 3 8 31l17 61q4 21 22 21h135l244 1149h-137q-17 0 -17 14q0 3 7 31l16 61q4 21 25 21h784q9 1 15 -5q4 -4 4 -10q0 -2 -1 -4l-61 -286q-4 -23 -25 -23h-94q-18 0 -18 12q0 3 4 19l33 160h-375l-98 -469h409q15 0 18 -9.5t-2 -21.5l-16 -82q-5 -25 -29 -25h-411 l-113 -532h164q7 0 10.5 -1.5t5.5 -8t-2 -19.5l-16 -78q-4 -20 -25 -20h-462q-19 0 -19 14z" />
<glyph unicode="G" horiz-adv-x="1101" d="M104 410q0 174 41.5 352.5t110.5 318.5q51 104 114 177t127.5 108.5t121 50.5t114.5 15q69 0 146.5 -21t128.5 -52t47 -59l-2 -16l-2 -8l-45 -201q-2 -20 -25 -20h-94q-8 0 -14 4t-5 8l4 14l2 9l35 151l-8 4q-12 7 -34.5 16.5t-67.5 21t-86 11.5q-96 0 -183 -80.5 t-153 -263.5q-51 -141 -78 -297t-27 -282q0 -128 58 -195t170 -67q91 0 188 28l88 445h-162q-16 0 -16 14q0 7 6 31l17 61q4 21 24 21h453q16 0 16 -15l-8 -32l-16 -60q-3 -7 -4.5 -10t-7 -6.5t-13.5 -3.5h-129l-102 -482q-6 -30 -14.5 -39t-39.5 -22q-146 -68 -305 -68 q-54 0 -102 10t-99 39.5t-87 76.5t-59.5 127.5t-23.5 185.5z" />
<glyph unicode="H" horiz-adv-x="1253" d="M-39 14q0 3 8 31l17 61q4 21 22 21h135l244 1149h-137q-17 0 -17 14q0 3 7 31l16 61q4 21 25 21h434q16 0 16 -14q0 -1 -8 -33l-16 -60q-3 -7 -4.5 -10t-7 -6.5t-13.5 -3.5h-135l-103 -479h478l102 479h-137q-17 0 -17 14q0 3 7 31l16 61q4 21 25 21h434q16 0 16 -14 q0 -1 -8 -33l-17 -60q-3 -8 -4 -10t-6.5 -6t-13.5 -4h-135l-244 -1149h139q17 0 17 -14q0 -3 -1.5 -8t-3.5 -12t-4 -13l-16 -62q-4 -18 -24 -18h-431q-18 0 -18 14q0 3 8 31l17 61q4 21 22 21h135l113 532h-477l-113 -532h139q17 0 17 -14q0 -1 -8 -33l-17 -62 q-4 -18 -24 -18h-430q-19 0 -19 14z" />
<glyph unicode="I" horiz-adv-x="677" d="M-61 14q0 3 8 31l16 61q4 21 23 21h188l244 1149h-193q-16 0 -16 14q0 7 6 31l16 61q4 21 25 21h543q16 0 16 -14q0 -1 -8 -33l-16 -60q-3 -7 -4.5 -10t-7 -6.5t-13.5 -3.5h-188l-244 -1149h194q17 0 17 -14q0 -1 -8 -33l-17 -62q-4 -18 -24 -18h-539q-18 0 -18 14z" />
<glyph unicode="J" horiz-adv-x="872" d="M-33 246q0 96 17 139q7 18 26 18h109q13 0 13.5 -13.5t-3.5 -24.5q-6 -27 -6 -84q0 -18 1.5 -35t10 -43.5t23.5 -45.5t44 -33.5t68 -14.5q49 0 87.5 16.5t62.5 40t42.5 61t27.5 68t18 72.5l192 909h-362q-16 0 -16 16q0 8 6 29l16 61q4 21 25 21h495q7 0 11 -1t7 -9 q2 -4 2 -11q0 -5 -1 -12l-199 -936q-46 -214 -113 -311q-105 -152 -307 -152q-147 0 -222 81t-75 194z" />
<glyph unicode="K" horiz-adv-x="1122" d="M-39 14q0 3 8 31l17 61q4 21 22 21h135l244 1149h-137q-17 0 -17 14q0 3 7 31l16 61q4 21 25 21h434q16 0 16 -14q0 -1 -8 -33l-16 -60q-3 -7 -4.5 -10t-7 -6.5t-13.5 -3.5h-135l-113 -533h4l510 533h-104q-17 0 -17 14q0 3 7 31l16 61q4 21 24 21h375q17 0 17 -14 q0 -3 -1.5 -8t-3.5 -12t-4 -13l-16 -60q-3 -8 -4 -10t-6.5 -6t-13.5 -4h-84l-527 -545l316 -604h106q16 0 16 -14q0 -1 -8 -33l-16 -62q-4 -18 -25 -18h-407q-19 0 -19 14q0 4 1.5 8.5t4 11t3.5 11.5l16 61q4 21 22 21h121l-303 596h-4l-127 -596h139q17 0 17 -14 q0 -1 -8 -33l-17 -62q-4 -18 -24 -18h-430q-19 0 -19 14z" />
<glyph unicode="L" horiz-adv-x="985" d="M-39 14q0 7 8 31l17 61q4 21 22 21h135l244 1149h-137q-17 0 -17 14q0 3 7 31l16 61q4 21 25 21h434q16 0 16 -14q0 -1 -8 -33l-16 -60q-3 -7 -4.5 -10t-7 -6.5t-13.5 -3.5h-135l-242 -1139h393l105 174q13 21 22 21q5 0 17 -6l73 -43l3 -2l4 -4t4 -5.5t2 -7.5 q0 -2 -15 -28l-125 -211q-15 -25 -36 -25h-775h3h3l-16 2l-2 2q-4 4 -4 10z" />
<glyph unicode="M" horiz-adv-x="1402" d="M-72 14q0 4 1.5 8.5t4 11t3.5 11.5l16 61q4 21 22 21h134l309 1149h-137q-17 0 -17 14q0 7 6 31l17 61q4 21 24 21h275q13 0 19 -2.5t7 -6.5t2 -16l82 -708v-6q0 -3 1 -8.5t1 -8.5v-6l4 -80h5q4 17 11.5 36t13 30.5t13.5 26t9 16.5l385 714q0 1 1.5 4t2.5 4.5t3 4t5 3.5 t7.5 2t10.5 1h299q17 0 17 -14q0 -1 -8 -33l-17 -60q-4 -22 -24 -20h-131l-181 -1149h140q16 0 16 -14q0 -1 -8 -33l-17 -62q-4 -18 -24 -18h-424q-19 0 -19 14q0 4 1.5 8.5t4 11t3.5 11.5l16 61q4 21 23 21h133l176 954q8 47 22 105h-4q-29 -72 -47 -105l-389 -719 q-6 -12 -10 -17.5t-12 -11t-17 -5.5h-59h-5h-5.5t-4.5 0.5t-4.5 2t-4 4.5t-3.5 8t-2 11l-76 727q0 3 -2.5 23.5t-3.5 42.5q-1 6 -4 51h-4q-3 -49 -18 -117l-228 -954h139q17 0 17 -14q0 -1 -8 -33l-17 -62q-4 -18 -24 -18h-424q-19 0 -19 14z" />
<glyph unicode="N" horiz-adv-x="1245" d="M-39 14q0 3 8 31l17 61q4 21 22 21h135l244 1149h-133q-16 0 -16 12v2v2q0 2 2.5 9t3.5 20l16 61q4 21 25 21h282q7 0 11.5 -1t7 -2t4.5 -4t2.5 -5t1.5 -6.5t2 -6.5l223 -979q9 -39 21 -153h4q11 112 22 166l183 864h-138q-16 0 -16 14q0 7 6 31l17 61q4 21 24 21h414 q16 0 16 -14q0 -1 -8 -33l-16 -60q-3 -7 -4.5 -10t-7 -6.5t-13.5 -3.5h-131l-258 -1215q-1 -3 -2.5 -11t-2.5 -12t-3.5 -11t-4.5 -11t-5.5 -8t-8 -6t-10.5 -2h-94q-35 0 -41 25l-236 1040q-1 6 -3 16q-6 27 -11 104q-1 16 -2 25h-4q-2 -67 -21 -153l-198 -930h135 q16 0 16 -14q0 -1 -8 -33l-16 -62q-4 -18 -25 -18h-409q-19 0 -19 14z" />
<glyph unicode="O" horiz-adv-x="1099" d="M106 383q0 172 28 337t94 321.5t161 252.5q71 71 149 104.5t183 33.5q176 0 266 -109q49 -59 65.5 -132.5t16.5 -172.5q0 -174 -30 -343.5t-96 -324.5t-159 -246q-71 -71 -149 -102t-178 -31q-99 0 -164.5 29.5t-114.5 99.5q-45 62 -58.5 127.5t-13.5 155.5zM274 350 q0 -116 45 -176q48 -65 152 -65q106 0 173.5 67t123.5 201q67 162 100 334t33 323q0 74 -12 125.5t-53 89.5q-48 45 -127 45q-87 0 -158 -53.5t-135 -187.5q-66 -140 -104 -339t-38 -364z" />
<glyph unicode="P" horiz-adv-x="1071" d="M-39 14q0 3 8 31l17 61q4 21 22 21h135l244 1149h-137q-17 0 -17 14q0 3 7 31l16 61q4 21 23 21h450q161 0 240 -55q102 -75 102 -246q0 -138 -56 -245t-130 -167q-115 -94 -332 -94h-150l-100 -469h160q16 0 16 -14q0 -1 -8 -33l-16 -62q-4 -18 -25 -18h-450 q-19 0 -19 14zM434 733h127q166 0 236 70q46 44 76 117.5t30 150.5q0 123 -57 168q-36 27 -103 27h-196z" />
<glyph unicode="Q" horiz-adv-x="1099" d="M106 379q0 166 26 326.5t94.5 324t172.5 264.5q72 68 150.5 103t181.5 35q171 0 258 -105q82 -98 82 -295q0 -165 -39 -360.5t-96 -329.5t-148 -225q49 -59 146 -135q4 -4 15.5 -12.5t18.5 -14t15 -13t12 -14t4 -12.5q0 -4 -1.5 -7.5t-3.5 -5t-4 -3.5l-3 -2l-94 -52 q-6 -6 -21 -6q-62 0 -202 185l-4 -2q-108 -52 -222 -52q-182 0 -268 119q-70 98 -70 289zM274 381q0 -142 33 -199q42 -73 139 -73q200 0 318 256q63 135 101 321.5t38 357.5q0 133 -47 193q-45 57 -129 57q-189 0 -307 -237q-57 -114 -101.5 -320.5t-44.5 -355.5z" />
<glyph unicode="R" horiz-adv-x="1083" d="M-39 14q0 3 8 31l17 61q4 21 22 21h135l244 1149h-137q-17 0 -17 14q0 3 7 31l16 61q4 21 23 21h438q204 0 284 -80q70 -73 70 -211q0 -176 -100 -305q-95 -125 -256 -156l180 -524h127q6 0 11.5 -3.5t4.5 -10.5l-14 -93q-4 -20 -29 -20h-198h-6h-6.5t-6 0.5t-6.5 2 t-5 3.5t-5 5.5t-4 8.5l-203 617h-143l-109 -510h160q16 0 16 -14q0 -1 -8 -33l-16 -62q-4 -18 -25 -18h-450q-19 0 -19 14zM442 774h125q74 0 125.5 11.5t97.5 47t76 97.5q37 73 37 149q0 51 -12 88t-28.5 55.5t-41 29t-41 12.5t-37.5 2h-196z" />
<glyph unicode="S" horiz-adv-x="890" d="M-10 111l55 256q0 2 2.5 6.5t8.5 10t14 5.5h96q16 0 16 -14q0 -3 -6 -27l-39 -186l17 -8q92 -45 186 -45q133 0 208 82.5t75 199.5q0 51 -15 94t-47.5 80.5t-58 60t-70.5 56.5q-7 5 -31.5 23.5t-34 26t-31.5 26t-32.5 29.5t-28.5 31t-27 36t-21.5 38.5t-18 44t-10 48.5 t-4.5 55q0 85 33.5 160t95.5 129q119 103 305 103q67 0 145.5 -16t130.5 -46q44 -28 44 -60q0 -5 -1 -10l-51 -235q0 -2 -2.5 -7t-8.5 -10.5t-14 -5.5h-98q-14 0 -14 13q0 8 4 24l35 162l-11 6q-36 21 -85 34t-87 13q-47 0 -91 -15t-81 -44t-59.5 -78.5t-22.5 -112.5 q0 -53 15 -83t57 -68q32 -29 82 -66t90 -71q31 -26 47 -40t47 -50t48 -68.5t31 -83t14 -106.5q0 -192 -130.5 -314.5t-338.5 -122.5q-143 0 -283 72q-50 28 -50 59q0 5 1 9z" />
<glyph unicode="T" horiz-adv-x="909" d="M106 14q0 4 1.5 8.5t4 11t3.5 11.5l16 61q4 21 23 21h135l243 1139h-200l-45 -217q-4 -21 -27 -21h-94q-16 0 -16 14q0 4 6 31l63 307q4 23 29 23h790q17 0 17 -14q0 -1 -6 -31l-66 -309q-4 -21 -27 -21h-94q-16 0 -16 14q0 7 6 31l41 193h-201l-243 -1139h155 q17 0 17 -14q0 -3 -1.5 -8t-3.5 -12t-4 -13l-16 -62q-4 -18 -25 -18h-446q-19 0 -19 14z" />
<glyph unicode="U" horiz-adv-x="1228" d="M147 258q0 50 15 127l188 891h-137q-16 0 -16 14q0 7 6 31l16 61q4 21 25 21h434q16 0 16 -14q0 -1 -8 -33l-16 -60q-3 -7 -4.5 -10t-7 -6.5t-13.5 -3.5h-135l-188 -891q-17 -83 -17 -115q0 -161 213 -161q273 0 330 276l188 891h-137q-16 0 -16 14q0 7 6 31l16 61 q4 21 25 21h434q16 0 16 -14q0 -1 -8 -33l-16 -60q-3 -7 -4.5 -10t-7 -6.5t-13.5 -3.5h-135l-188 -891q-14 -64 -31 -113.5t-55.5 -109t-90 -98.5t-138 -66t-197.5 -27q-349 0 -349 287z" />
<glyph unicode="V" horiz-adv-x="1064" d="M147 1290q0 3 7 31l16 61q4 21 25 21h389q16 0 16 -14q0 -1 -8 -33l-17 -60q-3 -8 -4 -10t-6.5 -6t-13.5 -4h-127l29 -965v-21q-1 -20 -1 -48q-2 -48 -1 -86h4q17 58 59 155l444 965h-129q-16 0 -16 14q0 7 6 31l17 61q4 21 24 21h375q16 0 16 -14q0 -1 -8 -33l-16 -60 q-3 -7 -4.5 -10t-7 -6.5t-13.5 -3.5h-80l-606 -1256q-10 -20 -39 -20h-121q-20 0 -25 6.5t-5 20.5l-70 1249h-92q-17 0 -17 14z" />
<glyph unicode="W" horiz-adv-x="1519" d="M170 1290q0 7 6 31l17 61q4 21 24 21h389q17 0 17 -14q0 -3 -1.5 -8t-3.5 -12t-4 -13l-16 -60q-3 -7 -4.5 -10t-7 -6.5t-13.5 -3.5h-127l-43 -911q0 -36 -22 -222h4q47 170 70 222l419 1017q9 21 31 21h92q6 0 10.5 -0.5t8 -1.5t5.5 -3t3 -3.5t1.5 -4t0.5 -3.5v-4v-3 l-45 -1026q-3 -56 -18 -196h4q47 165 59 196l363 922h-129q-17 0 -17 14q0 7 6 31l17 61q4 21 24 21h375q16 0 16 -14q0 -1 -8 -33l-16 -60q-3 -7 -4.5 -10t-7 -6.5t-13.5 -3.5h-92l-528 -1256q-10 -20 -35 -20h-129q-19 0 -17 23l58 1089h-4l-432 -1073 q-10 -26 -17.5 -32.5t-21.5 -6.5h-123q-10 0 -16 2t-8.5 8t-2.5 8v11l29 1247h-107q-16 0 -16 14z" />
<glyph unicode="X" horiz-adv-x="1028" d="M-137 14q0 3 8 31l16 61q4 21 23 21h100l455 606l-180 543h-119q-16 0 -16 14q0 7 6 31l16 61q4 21 25 21h403q16 0 16 -14q0 -1 -8 -33l-16 -60q-3 -7 -4.5 -10t-7 -6.5t-13.5 -3.5h-112l98 -299l33 -107l16 31q32 58 53 84l222 291h-123q-17 0 -17 14q0 7 6 31l17 61 q4 21 24 21h396q16 0 16 -14q0 -1 -8 -33l-17 -60q-3 -8 -4 -10t-6.5 -6t-13.5 -4h-88l-420 -543l209 -606h119q16 0 16 -14q0 -1 -8 -33l-17 -62q-4 -18 -24 -18h-412q-18 0 -18 14q0 3 8 31l16 61q4 21 23 21h121l-146 453l-336 -453h140q16 0 16 -14q0 -1 -8 -33l-16 -62 q-4 -18 -25 -18h-416q-18 0 -18 14z" />
<glyph unicode="Y" horiz-adv-x="1003" d="M131 1290q0 7 6 31l17 61q4 21 24 21h365q16 0 16 -14q0 -1 -8 -33l-16 -60q-3 -7 -4.5 -10t-7 -6.5t-13.5 -3.5h-113l113 -432q5 -21 18 -127h4l7 12q15 34 63 109l279 438h-123q-17 0 -17 14q0 3 7 31l16 61q4 21 24 21h386q16 0 16 -14q0 -1 -8 -33l-17 -60 q-3 -8 -4 -10t-6.5 -6t-13.5 -4h-78l-475 -682l-99 -467h156q17 0 17 -14q0 -3 -1.5 -8t-3.5 -12t-4 -13l-16 -62q-4 -18 -25 -18h-446q-19 0 -19 14q0 4 1.5 8.5t4 11t3.5 11.5l16 61q4 21 23 21h135l96 467l-186 682h-93q-16 0 -16 14z" />
<glyph unicode="Z" horiz-adv-x="948" d="M-31 16l27 129l846 1121h-439l-34 -172q-4 -21 -25 -21h-94q-19 0 -19 14q0 3 5 23l57 272q4 21 29 21h714q18 -1 20 -13q1 -4 1 -7q0 -9 -4 -17l-19 -88l-862 -1141h516l113 185q9 12 16 12q11 0 17 -6l69 -49q20 -13 8 -33l-141 -221q-1 -1 -3 -4t-2.5 -4t-2.5 -3.5 t-3.5 -3.5t-3.5 -3t-4.5 -3t-5.5 -2t-6.5 -1.5t-7.5 -0.5h-741q-22 0 -22 12q0 2 1 4z" />
<glyph unicode="[" horiz-adv-x="868" d="M123 -387q0 5 3 18t5 23l381 1786q3 13 8 19.5t9.5 7.5t13.5 1h358q20 0 14 -28l-16 -78q-4 -21 -25 -21h-229l-346 -1628h246q20 0 14 -28l-16 -78q-4 -21 -25 -21h-352q-43 0 -43 27z" />
<glyph unicode="\" horiz-adv-x="909" d="M366 1452q4 16 27 16h80q25 0 27 -22l217 -1811q5 -17 0.5 -33t-27.5 -16h-80q-23 0 -26 23l-217 1810q-5 17 -1 33z" />
<glyph unicode="]" horiz-adv-x="870" d="M-47 -385l16 78q4 20 25 20h229l346 1628h-245q-21 0 -15 29l17 78q4 20 24 20h352q43 0 43 -26q0 -5 -3 -18t-5 -23l-381 -1786q-4 -19 -11 -24t-19 -5h-359q-20 0 -14 29z" />
<glyph unicode="^" d="M170 707q0 3 10 26l293 653q3 6 4.5 8.5t7.5 5.5t15 3h112q18 0 27 -17l293 -653q10 -22 10 -26q0 -12 -20 -17l-99 -28q-6 -3 -10 -3q-13 0 -20 15l-238 528l-236 -528q-9 -19 -30 -12l-99 28q-20 5 -20 17z" />
<glyph unicode="_" d="M0 -154h1024v-102h-1024v102z" />
<glyph unicode="`" horiz-adv-x="681" d="M270 1309q0 5 9 14l100 104q15 15 22 15q12 0 17 -8l211 -226q6 -6 6 -12t-8 -14l-45 -45q-11 -11 -21 -11q-3 0 -5 1t-3.5 2l-3 2t-2.5 2l-268 163q-9 6 -9 13z" />
<glyph unicode="a" d="M72 272q0 100 28 223.5t74 223.5q38 80 87 138.5t91 87t89 45t70.5 19.5t45.5 3q51 0 94 -18t63.5 -36t43.5 -45l10 -12l29 64q7 18 18 18h90q16 0 16 -17q0 -4 -1 -10l-140 -643q-14 -68 -14 -137q0 -39 2 -57h137q17 0 17 -16q0 -5 -2 -11l-17 -72q-1 -7 -2.5 -10 t-7 -6.5t-14.5 -3.5h-154q-40 0 -68.5 27.5t-31.5 93.5v37l2 32q-69 -112 -153 -165.5t-171 -53.5q-27 0 -53.5 5.5t-60 25t-58.5 50.5t-42 88t-17 132zM227 281q0 -172 125 -172q110 0 199 117t125 282l59 278l-2 2q-86 86 -182 86q-122 0 -205 -147q-53 -90 -86 -217 t-33 -229z" />
<glyph unicode="b" horiz-adv-x="1007" d="M86 102q0 3 4 19l260 1229h-141q-16 0 -16 14q0 4 2.5 14.5t3.5 16.5l10 49q4 24 27 24h270q6 0 10.5 -4t3.5 -10l-106 -502q-2 -10 -29 -100h4q51 72 135 117q79 43 172 43q234 0 234 -277q0 -124 -40.5 -266.5t-105.5 -263.5q-19 -36 -37 -63.5t-49 -61.5t-65.5 -56 t-84.5 -37.5t-108 -15.5q-163 0 -340 111q-14 9 -14 20zM244 158q131 -54 196 -54q77 0 127.5 47t89.5 123q32 63 56 136q22 65 41.5 159t19.5 148q0 157 -135 157q-115 0 -203 -100q-76 -87 -102 -201z" />
<glyph unicode="c" horiz-adv-x="813" d="M72 309q0 134 38.5 266t104.5 228q44 62 97 105.5t106.5 64.5t98 30t87.5 9q44 0 97 -12t87 -29q32 -17 40 -31q5 -9 5 -21q0 -8 -2 -18l-43 -201q-4 -22 -26 -22h-90q-19 0 -19 14q0 9 4 23l31 139l-6 2q-56 18 -98 18q-70 0 -145.5 -45.5t-125.5 -138.5 q-39 -72 -62.5 -182.5t-23.5 -192.5q0 -59 16.5 -100t45 -62t58.5 -29.5t65 -8.5q31 0 60 5.5t53.5 16t41 19t35 20.5t23.5 14q16 8 20 9h6q7 0 11 -9l30 -71q0 -1 3 -7t3 -10q0 -13 -28 -32q-143 -99 -310 -99q-151 0 -223 97q-36 50 -50.5 118t-14.5 123z" />
<glyph unicode="d" d="M68 274q0 28 2 61t10 104t30 150.5t56 149.5q41 83 93.5 140.5t106.5 84.5t99 37.5t90 10.5q109 0 201 -56l20 -12l84 406h-147q-15 0 -15 14q0 4 4 20l13 60q5 24 26 24h265q20 0 22 -14v-7q0 -11 -4 -22l-236 -1112q-14 -77 -14 -137q0 -39 2 -57h137q22 0 15 -27 l-17 -72q-5 -20 -24 -20h-156q-64 0 -86 68q-10 29 -10 75v15v22h-4q-24 -36 -53 -69t-71 -66.5t-96 -53.5t-112 -20q-103 0 -167 70t-64 233zM223 276q0 -35 4.5 -60.5t16.5 -52t38 -40.5t66 -14q106 0 199 100q53 57 83 123t48 153l70 328l-23 14q-79 47 -164 47 q-171 0 -260 -196q-36 -81 -57 -192.5t-21 -209.5z" />
<glyph unicode="e" horiz-adv-x="909" d="M68 346q0 183 73 342q16 34 36.5 69t61.5 83.5t88 84t118 61.5t149 26q125 0 193.5 -70.5t68.5 -187.5q0 -69 -21 -125t-61.5 -95t-95 -67.5t-126.5 -44.5t-150 -23.5t-171 -7.5h-8l-2 -51v-19q1 -92 45 -146q50 -60 148 -60q126 0 258 80q29 18 35 18q12 0 18 -12 l49 -74q4 -4 4 -10q0 -11 -30 -31q-162 -115 -355 -115q-151 0 -238 94.5t-87 280.5zM242 518q17 -1 34 -1q71 1 148 11q95 12 156 39q131 57 131 176q0 60 -35.5 101t-106.5 41q-34 0 -66.5 -7.5t-73 -31.5t-74.5 -62.5t-65 -107t-48 -158.5z" />
<glyph unicode="f" horiz-adv-x="643" d="M-268 -365l28 84q6 13 15 13q4 0 37 -8q46 -11 79 -11q24 0 48.5 5t52 17.5t52 38t40.5 60.5q22 51 33 117l176 913h-143q-17 0 -17 13q0 5 6 32l11 49q5 25 26 25h143l41 197q15 77 37 131.5t68 97.5q78 74 217 74q117 0 207 -43q19 -9 19 -21q0 -3 -1 -6l-37 -88 q-3 -9 -10 -10t-29 8q-87 41 -157 41q-82 0 -123 -61q-28 -43 -47 -142l-37 -178h291q22 0 10 -31l-25 -63q-8 -25 -26 -25h-277l-174 -921q-40 -205 -143 -289q-88 -72 -238 -72q-67 0 -127 17q-19 5 -26 13q-3 3 -3 10q0 5 3 13z" />
<glyph unicode="g" horiz-adv-x="1005" d="M-35 -330q0 1 8 25l35 88q6 12 19 12q10 0 30 -10q152 -78 265 -78q67 0 111 25t79 84q15 26 27 59.5t15.5 50t14.5 66.5q15 69 25 127.5t18 89.5l-4 4q-126 -213 -299 -213q-27 0 -53.5 6t-60 25t-58.5 50.5t-42 88t-17 131.5q0 166 59 339.5t158 266.5q110 105 258 105 q66 0 120.5 -24t119.5 -73q36 64 65 82q25 18 41 2l57 -53q9 -9 9 -14q0 -6 -17 -27q-3 -4 -17.5 -21t-18 -22.5t-14 -24.5t-16.5 -37t-15 -50t-19 -74q-48 -220 -84 -420t-62 -330q-11 -54 -20 -87.5t-29.5 -76.5t-50.5 -77q-103 -115 -299 -115q-61 0 -143 18t-144 47 q-5 2 -16 7t-17.5 8t-12 8.5t-5.5 11.5zM233 303q0 -166 117 -166q105 0 195 115q41 52 74 122.5t47 133.5l61 291q-86 75 -188 75q-96 0 -158 -77q-61 -76 -104.5 -229t-43.5 -265z" />
<glyph unicode="h" horiz-adv-x="1114" d="M100 16q0 4 2.5 13t3.5 16l277 1305h-147q-15 0 -15 14q0 4 4 20l13 60q5 24 26 24h264q20 0 22.5 -14t-3.5 -29l-101 -473q-22 -95 -49 -157h6q64 91 150 151q97 66 217 66q102 0 146.5 -48t44.5 -116q0 -40 -21 -143l-125 -586h137q18 0 18 -18q0 -4 -1 -9l-17 -72 q-5 -20 -22 -20h-158q-55 0 -86 39q-16 21 -16 59q0 32 8 64l115 543q12 60 12 81q0 41 -24 64.5t-70 23.5q-58 0 -117.5 -31t-104.5 -79q-53 -57 -93 -140.5t-54 -156.5l-94 -447q-4 -20 -25 -20h-106q-17 0 -17 16z" />
<glyph unicode="i" horiz-adv-x="569" d="M92 879q0 8 4 22l13 57q0 1 0.5 4.5t1 4.5t1 4t1.5 4l3 3t4.5 3t6 1.5t8.5 0.5h283q20 0 22 -15.5t-4 -27.5l-174 -821h135q22 0 17 -27l-17 -72q-5 -20 -22 -20h-158q-55 0 -86 39q-16 21 -16 59q0 36 8 64l149 702h-163q-17 0 -17 15zM328 1354q0 47 32.5 80.5 t81.5 33.5q47 0 81 -33.5t34 -80.5q0 -49 -34 -82t-81 -33t-80.5 34t-33.5 81z" />
<glyph unicode="j" horiz-adv-x="595" d="M-307 -352q0 6 6 18l37 80q6 14 18 14q9 0 37 -14q76 -39 139 -39q95 0 144 100q27 54 59 205l182 852h-163q-17 0 -17 15l6 30l11 49q5 25 26 25h283q22 0 22 -20q0 -11 -4 -23l-211 -989q-43 -204 -114 -283q-40 -46 -102 -72t-130 -26q-109 0 -203 51q-7 2 -16.5 10.5 t-9.5 16.5zM371 1354q0 47 32.5 80.5t81.5 33.5q47 0 81 -33.5t34 -80.5q0 -49 -34 -82t-81 -33t-80.5 34t-33.5 81z" />
<glyph unicode="k" horiz-adv-x="1044" d="M100 12q0 6 6 33l279 1305h-145q-15 0 -15 14q0 1 6 31l11 49q4 24 26 24h271q6 0 10.5 -4t3.5 -10l-195 -909h4l355 319h-111q-16 0 -16 15q0 2 0.5 4t1.5 6.5t2 9.5l12 59q4 25 27 25h366q15 0 15 -14q0 -9 -4 -23l-13 -57q-4 -25 -26 -25h-64l-399 -342l283 -403h114 q6 0 10.5 -4t4.5 -9q0 -3 -2 -11t-3 -13l-12 -57q-4 -25 -26 -25h-162q-24 0 -31 14l-334 496l-102 -490q-4 -20 -25 -20h-106q-17 0 -17 12z" />
<glyph unicode="l" horiz-adv-x="557" d="M113 127q0 80 32 225l213 998h-159q-17 0 -17 14q0 1 6 31l11 49q5 24 26 24h287q6 0 10.5 -4t3.5 -10l-229 -1081q-33 -154 -33 -207q0 -68 58 -68q41 0 86 25q17 10 26 10t12 -14l15 -80q2 -16 -33 -33q-68 -35 -149 -35q-19 0 -37 2.5t-43 11.5t-42.5 25t-30.5 46 t-13 71z" />
<glyph unicode="m" horiz-adv-x="1572" d="M100 16q0 4 2.5 13t3.5 16l146 686q10 40 10 96q0 25 -2 37h-141q-17 0 -17 15q0 3 1.5 8.5t2.5 9.5l13 61q0 1 0.5 4.5t1 4.5t1 4t1.5 4l3 3t4.5 3t6 1.5t8.5 0.5h211q30 0 40 -49q7 -34 6 -73q0 -16 -1 -34l-2 -32h4q57 93 138 155q86 62 190 62q83 0 129 -54 q43 -51 43 -123v-10h4q55 87 143 137t183 50q82 0 135 -41.5t53 -128.5q0 -45 -20 -137l-125 -586h135q15 1 17 -9q1 -4 1 -8q0 -5 -2 -10l-16 -72q-5 -20 -22 -20h-158q-33 0 -56 12.5t-32 30.5t-12 29.5t-3 19.5v17q0 10 5 30l120 566q13 65 13 81q0 37 -20.5 62.5 t-67.5 25.5q-44 0 -84 -14t-67.5 -36.5t-43 -40t-27.5 -35.5q-43 -63 -68 -137t-48 -179l-88 -412q-4 -20 -25 -20h-106q-17 0 -17 16q0 4 2.5 13t3.5 16l140 660q12 60 12 81q0 36 -19.5 62t-66.5 26q-68 0 -135 -46t-115 -132q-58 -99 -84 -229l-94 -447q-4 -20 -25 -20 h-106q-17 0 -17 16z" />
<glyph unicode="n" horiz-adv-x="1114" d="M100 16q0 4 2.5 13t3.5 16l146 686q10 57 10 96q0 25 -2 37h-141q-17 0 -17 15q0 3 1.5 8.5t2.5 9.5l13 61q0 1 0.5 4.5t1 4.5t1 4t1.5 4l3 3t4.5 3t6 1.5t8.5 0.5h211q30 0 40 -49q7 -34 6 -73q0 -16 -1 -34l-2 -32h4q147 217 365 217q97 0 145 -46t48 -118 q0 -43 -21 -143l-123 -586h135q18 0 18 -18q0 -4 -1 -9l-17 -72q-5 -20 -22 -20h-158q-33 0 -56 12.5t-31.5 30.5t-11.5 29.5t-3 19.5v17q0 14 4 30l119 566q12 60 12 81q0 88 -90 88q-26 0 -53.5 -6t-66 -23t-80 -55t-77.5 -94q-72 -111 -96 -229l-94 -447q-4 -20 -25 -20 h-106q-17 0 -17 16z" />
<glyph unicode="o" horiz-adv-x="985" d="M68 313q0 263 120 459q43 69 95.5 118.5t107 74.5t103 36t98.5 11q139 0 225 -86q47 -47 67.5 -108t20.5 -152q0 -117 -33 -240.5t-94 -220.5q-41 -65 -93 -112.5t-106 -73t-103.5 -37t-98.5 -11.5q-135 0 -219 78q-90 85 -90 264zM223 317q0 -97 41 -151q43 -57 125 -57 q46 0 90.5 15t93.5 55t84 102q44 77 68.5 182t24.5 201q0 52 -11 92t-47 73q-48 45 -123 45q-68 0 -137.5 -40t-120.5 -134q-40 -75 -64 -180t-24 -203z" />
<glyph unicode="p" horiz-adv-x="1042" d="M-121 -399q0 6 6 30l11 50q4 24 26 24h113l207 965q16 75 16 127q0 21 -4 67h-145q-17 0 -17 15q0 3 6 30l11 49q4 25 26 25h203q27 0 40.5 -12.5t17 -29.5t6.5 -51q1 -11 1 -16l3 -20h4q149 158 321 158q71 0 119.5 -28t71.5 -76.5t32 -95.5t9 -103q0 -17 -0.5 -39 t-7 -83t-17 -117.5t-33.5 -128.5t-55 -130q-37 -66 -85 -114.5t-99 -75t-100 -38.5t-97 -12q-95 0 -190 54l-25 14l-72 -334h140q21 0 10 -37l-15 -61q-3 -21 -24 -21h-397q-17 0 -17 15zM283 170l20 -12q26 -15 39.5 -22t49 -17t73.5 -10q78 0 132.5 33t100.5 108 q61 102 85 231.5t24 220.5q0 24 -1 42t-8 44.5t-19 43.5t-36.5 29.5t-58.5 12.5q-48 0 -96.5 -22.5t-94.5 -66t-83.5 -118t-57.5 -169.5z" />
<glyph unicode="q" horiz-adv-x="999" d="M72 276q0 261 104 465q136 271 381 271q118 0 211 -74l31 -25l8 15q15 24 39 54t37 30l12 -6l66 -43q8 -4 8 -17q0 -4 -2.5 -8.5t-7.5 -10t-7 -7.5q-64 -76 -94 -230l-211 -985h125q4 0 7 -0.5t5 -2t3.5 -3t2 -4t0.5 -4.5t-0.5 -5.5t-1 -5.5t-1.5 -6.5t-1 -5.5l-14 -61 q-1 -7 -2.5 -10.5t-7 -7t-14.5 -3.5h-400q-16 0 -16 19q0 6 4 20l12 56v3q1 2 1.5 2.5t1 3t1 3.5t2 3t2.5 3t3 2.5t4.5 2t5.5 1t6 0.5h123l96 440l-4 5q-132 -179 -297 -179q-49 0 -87.5 16.5t-61.5 45.5t-38.5 60t-22 69t-9 63t-2.5 51zM227 299q0 -105 33.5 -147.5 t93.5 -42.5q111 0 197 108q81 97 113 250l71 342q-35 27 -84 46t-92 19q-48 0 -88 -13.5t-68 -38.5t-47.5 -51t-36.5 -60q-92 -183 -92 -412z" />
<glyph unicode="r" horiz-adv-x="706" d="M102 879q0 3 1 6t2.5 10t3.5 14l10 49q4 25 26 25h211q20 0 34 -30q11 -25 12 -73q0 -11 -1 -22l-2 -49l4 -4q46 94 123.5 150.5t153.5 56.5q39 0 61 -13q13 -4 13 -14q0 -8 -6 -20l-41 -95q-4 -10 -7.5 -12t-21.5 2q-20 8 -39 8q-46 0 -99 -38.5t-96 -102.5 q-65 -98 -98 -260l-94 -447q-5 -20 -25 -20h-106q-20 0 -15 27l146 688q8 41 8 92v45v12h-141q-17 0 -17 15z" />
<glyph unicode="s" horiz-adv-x="796" d="M2 74q0 7 3.5 19t4.5 18l39 188q4 20 27 20h92q16 0 16 -14q0 -2 -0.5 -4t-1.5 -6.5t-2 -9.5l-28 -142q76 -34 167 -34q85 0 133 49.5t48 115.5q0 33 -10 59.5t-35.5 51t-43 38t-57.5 40.5q-38 26 -54 37.5t-45 37t-41 46.5t-23 54t-11 71q0 67 29 128.5t86 104.5 q94 70 231 70q53 0 105.5 -11.5t88.5 -36.5q31 -21 31 -47q0 -5 -1 -10l-39 -186q-4 -21 -27 -21h-90q-25 0 -16 31l28 129q-55 14 -98 14q-74 0 -123 -39t-49 -106q0 -52 31 -85t104 -79q35 -22 49.5 -31.5t46 -37t46.5 -51.5t28.5 -63t13.5 -83q0 -62 -21.5 -119 t-64 -104.5t-113.5 -76t-161 -28.5q-146 0 -268 72q-25 15 -25 31z" />
<glyph unicode="t" horiz-adv-x="681" d="M96 879q0 10 4 30l11 49q3 14 9 19.5t19 5.5h150l57 283q1 4 2 7.5t3 5.5t3 3.5t3.5 2.5t4 1.5t4 1t3.5 0.5l108 31q8 2 14 2q13 0 13 -10q0 -7 -6 -25l-64 -303h281q11 0 13 -9q1 -3 0 -6q0 -6 -3 -12l-39 -75q0 -1 -1 -4.5t-2.5 -6t-4.5 -4.5t-8 -2h-260l-121 -563 q-10 -60 -10 -98q0 -52 24 -74q22 -20 66 -20q76 0 172 45q16 8 26 8q13 0 13 -15l14 -84q2 -13 -31 -34q-42 -24 -113 -41t-131 -17q-109 0 -159 66q-37 47 -37 129q0 39 18 131l121 567h-149q-17 0 -17 15z" />
<glyph unicode="u" horiz-adv-x="1093" d="M100 879q0 3 1.5 10t2.5 12l11 57l1 4q0 5 0.5 5.5t1 4t1.5 4t3 3t4.5 3t6 1t8.5 0.5h269q20 0 22 -15.5t-4 -27.5l-127 -592q-1 -7 -5 -26t-6.5 -31.5t-4.5 -31.5t-2 -36q0 -114 104 -114q54 0 109 26t92 58q47 40 82.5 108.5t62.5 196.5l94 446q4 21 21 25l106 26 q8 2 14 2q18 0 15 -18l-152 -711q-16 -78 -16 -106q0 -19 2 -29l2 -14h139q22 0 17 -27l-17 -72q-5 -20 -22 -20h-119q-67 0 -98 27q-6 6 -11 13.5t-8.5 13t-5.5 15.5t-3.5 15t-2 17t-0.5 16v18v17v12h-4q-65 -91 -158 -142t-194 -51q-55 0 -97 21t-64.5 54.5t-33 69 t-10.5 70.5q0 38 18 119l119 559h-147q-17 0 -17 15z" />
<glyph unicode="v" horiz-adv-x="901" d="M31 879q0 4 1 8.5t2.5 10t2.5 9.5l10 51q4 25 27 25h213q22 0 24 -31l60 -608q0 -3 1 -16t3 -45t4 -74h4q21 49 84 162l321 614q0 1 6 7q5 5 9 5h2l115 -28q12 -4 12 -14q0 -7 -6 -17l-541 -936q-10 -16 -23 -16h-75q-12 0 -17 20l-108 858h-115q-16 0 -16 15z" />
<glyph unicode="w" horiz-adv-x="1261" d="M31 877q0 6 4 22l12 59q4 25 27 25h211q26 0 26 -31l-10 -743h4q11 28 35 78l328 667l4 8q5 8 7 11t8 6.5t13 3.5h84q13 0 13 -22l12 -779h4l78 199l256 604q6 12 14 13q2 0 4 -1l111 -28q14 -3 14 -15q0 -4 -6 -16l-453 -926q-14 -26 -38 -26h-68q-6 0 -10 1t-6 2.5 t-3 4t-1 4v5.5v5l-23 733h-4l-64 -141l-307 -598q-9 -16 -22 -16h-76q-16 0 -16 19v3l-31 856h-115q-16 0 -16 13z" />
<glyph unicode="x" horiz-adv-x="872" d="M-57 45q0 6 10 16l407 449l-161 354h-115q-16 0 -16 15q0 6 4 22l12 57q4 25 27 25h182q14 0 20 -14l148 -346q42 60 45 63l250 303q10 10 14 10q6 0 14 -4l107 -43q8 -4 8 -12q0 -6 -8 -14l-381 -416l178 -391h113q16 0 16 -15q0 -2 -0.5 -4t-1.5 -6.5t-2 -9.5l-12 -59 q-4 -25 -27 -25h-182q-18 0 -27 18l-135 310q-13 33 -20 55q-9 -14 -21.5 -28.5t-15.5 -18.5l-277 -334q-11 -16 -22 -16q-4 0 -29 10l-90 37q-12 4 -12 12z" />
<glyph unicode="y" horiz-adv-x="948" d="M-131 -344q0 5 10 20l47 78q5 10 15 10q12 0 28 -12q68 -45 135 -45q41 0 76 15.5t61.5 44t42.5 51t33 53.5l70 129h-74h-4h-5t-4.5 1t-4.5 3t-3.5 6t-2.5 10l-123 844h-121q-19 0 -12 27l14 70q4 22 27 22h217q17 0 20 -18l115 -885h4l393 905q6 12 17 12q4 0 12 -4 l96 -39q10 -5 10 -12q0 -8 -4 -16l-383 -856q-79 -174 -141 -275q-39 -63 -83.5 -110.5t-110.5 -79.5q-72 -35 -154 -35q-103 0 -184 55q-29 18 -29 31z" />
<glyph unicode="z" horiz-adv-x="837" d="M-33 27l19 79l659 750h-328l-28 -131q-5 -23 -25 -23h-86q-7 0 -11 1.5t-6 3.5t-2 7t0.5 7t2.5 9t2 9l47 224q4 20 25 20h598q14 0 14 -14q0 -5 -2 -13l-19 -79l-645 -750h365l80 127q13 20 26 20q7 0 19 -8l61 -39q8 -4 8 -14q0 -7 -8 -23l-106 -167l-4 -7 q-4 -6 -6.5 -8t-10.5 -5t-20 -3h-606q-15 0 -15 15q0 5 2 12z" />
<glyph unicode="{" horiz-adv-x="948" d="M164 498v2v4q0 2 2 5t2 5v4l14 64q1 7 3 12t3.5 7.5t5 3.5t5 1h6h6.5h45q88 0 137 37q60 47 80 148l78 364q15 70 37.5 123.5t68.5 97.5q95 92 304 92h36q6 0 10 -0.5t8.5 -4.5t2.5 -11l-17 -86q-1 -6 -2.5 -10.5t-3.5 -7t-3.5 -4.5t-5 -2.5t-4.5 -0.5h-5.5h-5.5h-58 q-89 0 -133 -36q-58 -45 -78 -150l-77 -364q-40 -196 -201 -250l8 -4q40 -20 69 -61t29 -97q0 -21 -12 -82l-86 -408q-8 -28 -8 -69q0 -24 6 -45q12 -36 47 -49t90 -13h58q30 0 18 -41l-14 -61q-3 -13 -9 -18.5t-9.5 -6t-12.5 -0.5h-39q-196 0 -260 95q-31 50 -31 114 q0 28 13 94l86 408q8 39 8 65q0 117 -146 117h-45q-20 0 -20 19z" />
<glyph unicode="|" horiz-adv-x="802" d="M369 -483v1990v3v4t0.5 4t1 4.5t1.5 4t3 4t5 3t6.5 2t8.5 0.5h94q27 0 27 -29v-1990q0 -29 -27 -29h-94q-5 0 -8.5 0.5t-6.5 2t-5 3t-3 4t-1.5 4t-1 4.5t-0.5 4v4v3z" />
<glyph unicode="}" horiz-adv-x="948" d="M-72 -397l17 86q1 7 3.5 12t4 7.5t5 3.5t5 1h6h6.5h58q88 0 133 37q58 45 78 150l78 364q40 197 200 250l-8 4q-40 20 -69 61t-29 97q0 20 12 82l86 407q8 28 8 70q0 24 -6 45q-12 36 -46.5 48.5t-90.5 12.5h-57q-31 0 -19 41l14 62q3 12 9 18t9 6h13h39q197 0 260 -94 q31 -50 31 -114q0 -34 -12 -95l-86 -407q-9 -44 -9 -66q0 -117 146 -117h45q20 0 20 -18v-2v-4q0 -2 -2 -5t-2 -5v-4l-14 -64q-1 -7 -3 -12t-3.5 -7.5t-5 -3.5t-5 -1h-6h-6.5h-45q-88 0 -137 -37q-60 -47 -80 -148l-78 -364q-15 -71 -37.5 -124.5t-68.5 -97.5 q-95 -92 -303 -92h-37q-6 0 -10.5 0.5t-8.5 5t-2 11.5z" />
<glyph unicode="~" horiz-adv-x="1007" d="M61 457q0 4 2.5 8t9.5 12t13 17q14 20 51 53.5t58 46.5q96 70 196 70q43 0 82 -11.5t60 -23t53 -33.5q6 -4 20.5 -13t19 -12t15.5 -9.5t15.5 -8.5t13.5 -6.5t14.5 -5.5t14 -3t16.5 -2.5t18 -0.5q52 0 95 22t90 74q17 19 28.5 20t20.5 -8l49 -35q1 -1 3.5 -2t4 -2t3 -3.5 t1.5 -6.5q0 -9 -22 -33q-6 -6 -20 -22.5t-21.5 -24.5t-21 -21.5t-28.5 -25t-32 -23.5q-85 -57 -185 -57q-91 0 -174 57q-2 1 -14 9.5t-15.5 11t-15 10.5t-17.5 10.5t-17.5 8.5t-19.5 8.5t-19.5 6t-22.5 4.5t-23 1q-106 0 -192 -98q-15 -18 -26.5 -18t-18.5 8l-49 34 q-11 7 -12 10t-1 7z" />
<glyph unicode="&#xa9;" horiz-adv-x="1017" d="M197 958q0 173 124 297.5t297 124.5t297.5 -124.5t124.5 -297.5t-124.5 -297t-297.5 -124t-297 124t-124 297zM287 958q0 -136 97.5 -233.5t233.5 -97.5q137 0 234.5 97.5t97.5 233.5t-98 234t-234 98t-233.5 -97.5t-97.5 -234.5zM463 967q0 241 174 241q40 0 72 -11 t45.5 -24t13.5 -22v-70q0 -20 -20 -20h-31q-21 0 -21 20v45q-31 9 -55 9q-25 0 -41 -13t-22.5 -38.5t-8.5 -48.5t-2 -58q0 -38 2.5 -64t10.5 -55t27 -44t48 -15q7 0 41 6v45q0 20 21 20h31q20 0 20 -20v-72q0 -23 -43.5 -37t-77.5 -14q-55 0 -93.5 23t-57 61.5t-26 76 t-7.5 79.5z" />
<glyph unicode="&#xab;" horiz-adv-x="1060" d="M104 487q0 4 1.5 6.5t3 4l4.5 4.5l4 4l438 438q12 12 20 12q5 0 17 -6l61 -39q11 -5 11 -16q0 -7 -9 -16l-362 -400l174 -385l3.5 -7t2.5 -9q0 -14 -18 -21l-58 -26l-20 -8q-7 0 -15 12l-251 434q-7 14 -7 18zM483 487q0 4 1.5 6.5t3 4l4.5 4.5l4 4l438 438q12 12 20 12 q5 0 17 -6l61 -39q10 -5 10 -16q0 -8 -8 -16l-362 -400l174 -385l2.5 -5t2.5 -5.5t1 -5.5q0 -14 -18 -21l-58 -26l-20 -8q-7 0 -15 12l-252 434q-6 12 -6 18z" />
<glyph unicode="&#xad;" horiz-adv-x="606" d="M53 453q-2 11 4 28l19 90q4 25 30 25h424q24 0 17 -33l-21 -96q-4 -17 -11 -21t-19 -4h-422q-19 0 -21 11z" />
<glyph unicode="&#xae;" horiz-adv-x="1017" d="M197 958q0 173 124 297.5t297 124.5t297.5 -124.5t124.5 -297.5t-124.5 -297t-297.5 -124t-297 124t-124 297zM287 958q0 -136 97.5 -233.5t233.5 -97.5q137 0 234.5 97.5t97.5 233.5t-98 234t-234 98t-233.5 -97.5t-97.5 -234.5zM428 750v24q0 9 6 15t15 6h28v335h-28 q-9 0 -15 6t-6 15v23q0 20 21 20h186q14 0 25.5 -1t35.5 -7.5t40 -18.5t29 -37.5t13 -60.5q0 -53 -26.5 -83.5t-63.5 -41.5l90 -149h23q20 0 20 -21v-24q0 -21 -20 -21h-66q-12 0 -19 3.5t-9 6.5t-5 9l-104 182h-29v-135h29q20 0 20 -21v-24q0 -21 -20 -21h-149q-9 0 -15 6 t-6 15zM569 995h41q42 0 57 22.5t15 49.5q0 28 -18.5 44.5t-45.5 16.5h-49v-133z" />
<glyph unicode="&#xbb;" horiz-adv-x="1060" d="M0 84q0 8 8 16l363 400l-174 385q-1 2 -4 7.5t-3 8.5q0 13 19 21l57 26q20 8 21 8q6 0 14 -12l252 -434q6 -12 6 -18q0 -7 -12 -19l-438 -438q-12 -12 -21 -12q-4 0 -16 6l-62 39q-10 5 -10 16zM379 84q0 8 8 16l363 400l-175 385q-1 2 -3.5 7.5t-2.5 8.5q0 13 19 21 l57 26q20 8 21 8q6 0 14 -12l252 -434q6 -12 6 -18q0 -7 -12 -19l-439 -438q-12 -12 -20 -12q-4 0 -16 6l-62 39q-10 5 -10 16z" />
<glyph unicode="&#x401;" d="M-43 14q0 3 8 31l17 61q4 21 22 21h135l244 1149h-137q-17 0 -17 14q0 3 7 31l16 61q4 21 24 21h799q9 0 15 -5.5t4 -13.5l-62 -286q-4 -23 -24 -23h-95q-18 0 -18 12q0 3 4 19l33 160h-389l-99 -469h426q25 0 17 -31l-17 -82q-5 -25 -28 -25h-428l-111 -522h404l41 195 q0 6 5.5 14t18.5 8h100q15 0 11 -22l-64 -307q-6 -25 -31 -25h-813q-18 0 -18 14zM442 1610q0 41 32 72.5t73 31.5t72.5 -31.5t31.5 -72.5q0 -42 -32 -73.5t-72 -31.5q-41 0 -73 32t-32 73zM817 1610q0 41 32 72.5t73 31.5t72.5 -31.5t31.5 -72.5q0 -42 -32 -73.5t-72 -31.5 q-41 0 -73 32t-32 73z" />
<glyph unicode="&#x402;" horiz-adv-x="1284" d="M92 14q0 3 8 31l17 61q4 21 22 21h135l242 1139h-180l-45 -217q-4 -21 -27 -21h-94q-16 0 -16 14q0 4 6 31l63 307q4 23 29 23h790q17 0 17 -14q0 -1 -6 -31l-66 -309q-4 -21 -26 -21h-95q-16 0 -16 14q0 7 6 31l41 193h-221l-103 -484q151 68 256 68q127 0 203 -59 q96 -73 96 -220q0 -53 -8.5 -112.5t-26.5 -129t-50.5 -132t-75.5 -114t-108 -82t-142 -30.5q-76 0 -158 35q-30 12 -20 31l39 88q17 39 51 18q63 -36 112 -34q42 1 75.5 23t56.5 61t36.5 75.5t26.5 85.5q25 98 25 191q0 87 -64 133q-49 35 -135 35q-99 0 -217 -68l-133 -627 q-4 -18 -25 -18h-276q-19 0 -19 14z" />
<glyph unicode="&#x403;" horiz-adv-x="960" d="M-39 14q0 3 8 31l17 61q4 21 22 21h135l244 1149h-137q-17 0 -17 14q0 3 7 31l16 61q4 21 25 21h784q9 0 14.5 -5.5t3.5 -13.5l-71 -333q-4 -23 -25 -23h-94q-19 0 -19 12q0 2 1 4.5t2 7t2 7.5l43 207h-375l-242 -1139h164q7 0 10.5 -1.5t5.5 -8t-2 -19.5l-16 -78 q-4 -20 -25 -20h-462q-19 0 -19 14zM649 1575q0 4 2 6t6 4.5t5 3.5l342 211q12 6 16 6q7 0 16 -14l58 -104q4 -8 4 -13q0 -13 -17 -20l-368 -148q-8 -4 -17 -4t-14 10l-29 48q-4 8 -4 14z" />
<glyph unicode="&#x404;" horiz-adv-x="964" d="M104 393q0 161 35.5 339t104.5 325q43 92 96 161.5t102.5 109t104 64t96.5 32.5t84 8q102 0 197 -43q41 -17 76.5 -46t35.5 -53q0 -12 -4 -24l-47 -211q-4 -21 -24 -21h-95q-16 0 -16 13q0 8 4 22l37 172l-23 12q-73 41 -151 41q-138 0 -244 -149q-88 -123 -143 -346h403 q27 0 21 -25l-19 -88q-4 -24 -30 -24h-406q-27 -166 -27 -291q0 -129 60 -199q54 -63 149 -63q93 0 183 63l20 14l37 172q1 8 2.5 12t7 7.5t14.5 3.5h95q23 0 12 -43l-41 -195q-6 -32 -20 -43q-61 -49 -166.5 -89t-190.5 -40q-158 0 -244 109q-86 108 -86 313z" />
<glyph unicode="&#x405;" horiz-adv-x="890" d="M-10 111l55 256q0 2 2.5 6.5t8.5 10t14 5.5h96q16 0 16 -14q0 -3 -6 -27l-39 -186l17 -8q92 -45 186 -45q133 0 208 82.5t75 199.5q0 51 -15 94t-47.5 80.5t-58 60t-70.5 56.5q-7 5 -31.5 23.5t-34 26t-31.5 26t-32.5 29.5t-28.5 31t-27 36t-21.5 38.5t-18 44t-10 48.5 t-4.5 55q0 85 33.5 160t95.5 129q119 103 305 103q67 0 145.5 -16t130.5 -46q51 -32 43 -70l-51 -235q0 -2 -2.5 -7t-8.5 -10.5t-14 -5.5h-98q-14 0 -14 13q0 8 4 24l35 162l-11 6q-36 21 -85 34t-87 13q-47 0 -91 -15t-81 -44t-59.5 -78.5t-22.5 -112.5q0 -53 15 -83 t57 -68q32 -29 82 -66t90 -71q31 -26 47 -40t47 -50t48 -68.5t31 -83t14 -106.5q0 -192 -130.5 -314.5t-338.5 -122.5q-143 0 -283 72q-57 32 -49 68z" />
<glyph unicode="&#x406;" horiz-adv-x="677" d="M-61 14q0 3 8 31l16 61q4 21 23 21h188l244 1149h-193q-16 0 -16 14q0 7 6 31l16 61q4 21 25 21h543q16 0 16 -14q0 -1 -8 -33l-16 -60q-3 -7 -4.5 -10t-7 -6.5t-13.5 -3.5h-188l-244 -1149h194q17 0 17 -14q0 -1 -8 -33l-17 -62q-4 -18 -24 -18h-539q-18 0 -18 14z" />
<glyph unicode="&#x407;" horiz-adv-x="677" d="M-61 14q0 3 8 31l16 61q4 21 23 21h188l244 1149h-193q-16 0 -16 14q0 7 6 31l16 61q4 21 25 21h543q16 0 16 -14q0 -1 -8 -33l-16 -60q-3 -7 -4.5 -10t-7 -6.5t-13.5 -3.5h-188l-244 -1149h194q17 0 17 -14q0 -1 -8 -33l-17 -62q-4 -18 -24 -18h-539q-18 0 -18 14z M281 1645q0 44 31 75t75 31t75.5 -31t31.5 -75t-31.5 -75.5t-75.5 -31.5t-75 31.5t-31 75.5zM655 1645q0 44 31.5 75t75.5 31t75 -31t31 -75t-31 -75.5t-75 -31.5t-75.5 31.5t-31.5 75.5z" />
<glyph unicode="&#x408;" horiz-adv-x="872" d="M-33 246q0 96 17 139q7 18 26 18h109q13 0 13.5 -13.5t-3.5 -24.5q-6 -27 -6 -84q0 -18 1.5 -35t10 -43.5t23.5 -45.5t44 -33.5t68 -14.5q49 0 87.5 16.5t62.5 40t42.5 61t27.5 68t18 72.5l192 909h-362q-16 0 -16 16q0 8 6 29l16 61q4 21 25 21h495q7 0 11 -1t7.5 -9 t0.5 -23l-199 -936q-46 -214 -113 -311q-105 -152 -307 -152q-147 0 -222 81t-75 194z" />
<glyph unicode="&#x409;" horiz-adv-x="1656" d="M-82 -10l2 106q0 39 29 41l22 2q85 7 142.5 53.5t109.5 145.5q71 140 145 360t117 398l43 180h-137q-16 0 -16 14q0 7 6 31l16 61q4 21 23 21h895q14 0 14 -14q0 -15 -6 -33l-16 -60q-6 -20 -27 -20h-135l-98 -469h170q193 0 288 -88q90 -83 90 -230q0 -128 -60 -246 t-159 -177q-111 -66 -260 -66h-538q-19 0 -19 14q0 3 8 31l17 61q4 21 22 21h135l242 1139h-307l-72 -299q-17 -71 -41 -153.5t-67 -215t-100 -254t-115 -194.5q-113 -147 -289 -175q-28 -4 -45 -4q-29 0 -29 19zM903 137h180q210 0 295 154q49 93 49 176q0 111 -67 160 q-58 43 -176 43h-164z" />
<glyph unicode="&#x40a;" horiz-adv-x="1695" d="M-39 14q0 3 8 31l17 61q4 21 22 21h135l244 1149h-137q-17 0 -17 14q0 3 7 31l16 61q4 21 25 21h434q16 0 16 -14q0 -1 -8 -33l-16 -60q-3 -7 -4.5 -10t-7 -6.5t-13.5 -3.5h-135l-103 -475h478l102 475h-137q-17 0 -17 14q0 3 7 31l16 61q5 23 25 21h434q16 0 16 -14 q0 -1 -8 -33l-17 -60q-3 -8 -4 -10t-6.5 -6t-13.5 -4h-135l-101 -475h197q194 0 289 -111q65 -75 65 -203q0 -126 -60 -243t-159 -178q-108 -66 -285 -66h-514q-18 0 -18 14q0 3 8 31l17 61q4 21 22 21h135l115 537h-477l-115 -537h139q17 0 17 -14q0 -1 -8 -33l-17 -62 q-4 -18 -24 -18h-430q-19 0 -19 14zM942 137h215q76 0 147.5 39.5t112.5 114.5q20 39 34.5 89t14.5 85q0 103 -63 153q-57 46 -184 46h-164z" />
<glyph unicode="&#x40b;" horiz-adv-x="1355" d="M92 14q0 3 8 31l17 61q4 21 22 21h135l242 1139h-180l-45 -217q-4 -21 -27 -21h-94q-16 0 -16 14q0 4 6 31l63 307q4 23 29 23h790q17 0 17 -14q0 -1 -6 -31l-66 -309q-4 -21 -26 -21h-95q-16 0 -16 14q0 7 6 31l41 193h-221l-101 -478q155 72 293 72q146 0 217 -65 q74 -66 74 -189q0 -45 -8 -84l-84 -395h129q27 0 21 -25l-17 -77q-4 -25 -31 -25h-417q-17 0 -20 9.5t1 15.5l17 77l1 5q1 5 1.5 6l2.5 5t4.5 5t7.5 2.5t11 1.5h129l84 395q8 40 8 62q0 49 -28 84q-44 55 -146 55q-130 0 -278 -68l-113 -528h156q16 0 16 -14q0 -1 -8 -33 l-16 -62q-4 -18 -25 -18h-446q-19 0 -19 14z" />
<glyph unicode="&#x40c;" horiz-adv-x="1198" d="M-38 9.5q-3 9.5 1 15.5l17 77l1 5q1 5 1.5 6l2.5 5t4.5 5t7.5 2.5t11 1.5h129l244 1149h-129q-17 0 -20 9t1 15l17 78v4q1 3 1.5 4t1.5 4t2 4l3.5 3.5t5 3t6.5 1.5t9 1h417q27 0 21 -25l-17 -78q-4 -24 -30 -24h-129l-103 -479h185q28 0 47 4.5t45.5 20.5t53 55t52.5 100 l66 156q38 91 66.5 138t68.5 81q73 61 178 73l33 5q31 8 35 -21l12 -92q2 -13 -6 -21.5t-14.5 -10t-16.5 -3.5l-47 -6q-66 -8 -104 -59q-29 -37 -68 -132l-49 -114q-44 -102 -74 -142q-56 -78 -145 -110q11 -6 24 -16.5t36.5 -32.5t40.5 -56.5t22 -74.5l32 -267 q0 -4 1.5 -19t2.5 -21t3 -18.5t5 -19.5t7.5 -16t11.5 -16q21 -25 62 -31l36 -6q32 -6 23 -33l-47 -98q-9 -21 -26 -23.5t-44 4.5q-62 12 -96.5 29t-58.5 57q-7 11 -12.5 23.5t-9 28.5t-6.5 27.5t-5 32.5t-3 31t-2.5 34.5t-2.5 31.5l-17 203q-15 186 -178 186h-145l-113 -532 h129q26 0 20 -25l-16 -77q-4 -25 -31 -25h-417q-17 0 -20 9.5zM727 1575q0 4 2 6t5.5 4.5t4.5 3.5l342 211q12 6 17 6q7 0 16 -14l57 -104q5 -10 5 -13q0 -13 -17 -20l-368 -148q-8 -4 -17 -4t-14 10l-29 48q-4 8 -4 14z" />
<glyph unicode="&#x40e;" horiz-adv-x="1093" d="M39 92l49 68q9 14 23 14q9 0 39 -20q70 -45 131 -45q81 0 139 61q36 38 92 152l23 47h-64q-14 0 -20 4.5t-9 23.5l-147 879h-119q-16 0 -16 14q0 7 6 31l16 61q4 21 25 21h385q16 0 16 -14q0 -1 -8 -33l-16 -60q-3 -7 -4.5 -10t-7 -6.5t-13.5 -3.5h-100l96 -567l31 -242 h6q34 76 62.5 136t45 95t21.5 45l266 533h-129q-16 0 -16 14q0 7 6 31l16 61q4 21 25 21h375q16 0 16 -14q0 -1 -8 -33l-17 -60q-3 -8 -4 -10t-6.5 -6t-13.5 -4h-78l-526 -1030q-25 -50 -67 -108.5t-81 -90.5q-94 -76 -223 -76q-104 0 -193 60q-46 31 -24 61zM545 1722v11 q0 7 6 13.5t14 8.5l90 14q2 0 6.5 1.5t6.5 1.5q12 0 12 -19v-16q0 -55 20 -78q25 -29 84 -29q54 0 99 29q37 25 61 78q3 6 5 11.5t2.5 8t2 5t2.5 3.5q7 9 25 4l96 -14q11 0 13 -10v-6q-3 -23 -19 -51q-46 -89 -123 -129q-65 -35 -170 -35q-103 0 -155 35q-78 50 -78 163z " />
<glyph unicode="&#x40f;" horiz-adv-x="1239" d="M-39 14q0 1 8 33l17 59q7 17 15 20q4 1 9 1h135l244 1149h-139q-17 0 -17 14q0 4 1.5 8.5t3.5 11.5t4 13l16 61q4 19 25 19h430q18 0 18 -14q0 -3 -8 -31l-16 -62q-4 -20 -23 -20h-135l-242 -1139h463l242 1139h-140q-16 0 -16 14q0 1 8 33l17 61q4 19 24 19h430 q19 0 19 -14q0 -3 -8 -31l-17 -62q-4 -20 -22 -20h-136l-243 -1149h137q16 0 16 -14q0 -7 -6 -31l-16 -62q-4 -20 -25 -20h-444l-76 -354l-1 -3q-1 -3 -2 -4.5t-3.5 -4.5t-5 -4.5t-7.5 -3t-10 -1.5h-110q-25 0 -19 31l74 344h-453q-16 0 -16 14z" />
<glyph unicode="&#x410;" horiz-adv-x="1130" d="M-113 14q0 4 1.5 8.5t4 11t3.5 11.5l16 61q4 21 22 21h86l650 1257q1 1 3 5.5t4 6.5t6.5 4.5t10.5 2.5h115q11 0 16.5 -4.5t6 -8t2.5 -14.5l114 -1249h105q7 0 10.5 -1.5t5.5 -8t-2 -19.5l-16 -78q-4 -20 -25 -20h-387q-18 0 -18 14q0 3 8 31l16 61q4 21 23 21h120 l-24 295h-436l-148 -295h125q7 0 10.5 -1.5t5.5 -8t-2 -19.5l-16 -78q-4 -20 -24 -20h-373q-19 0 -19 14zM395 559h357l-35 455q-6 74 -6 194h-4q-24 -78 -82 -194z" />
<glyph unicode="&#x411;" horiz-adv-x="1087" d="M-39 14q0 3 8 31l17 61q4 21 22 21h135l244 1149h-137q-17 0 -17 14q0 3 7 31l16 61q4 21 25 21h798q9 0 15 -5.5t4 -13.5l-72 -333q-4 -23 -25 -23h-94q-18 0 -18 12q0 3 4 19l43 207h-389l-94 -459h198q204 0 293 -125q57 -80 57 -197q0 -123 -61 -241.5t-158 -177.5 q-108 -66 -278 -66h-524q-19 0 -19 14zM309 137h180q211 0 295 154q21 38 35.5 89.5t14.5 92.5q0 85 -43 131q-26 30 -68 46t-68 18t-67 2h-164z" />
<glyph unicode="&#x412;" horiz-adv-x="1120" d="M-39 14q0 3 8 31l17 61q4 21 22 21h135l244 1149h-137q-17 0 -17 14q0 3 7 31l16 61q4 21 25 21h403q61 0 85.5 -1t81 -6.5t96.5 -21.5t71 -43q74 -63 74 -186q0 -134 -73 -245t-210 -163v-4q85 -21 136.5 -91.5t51.5 -172.5q0 -169 -110 -309q-73 -90 -169 -125 t-218 -35h-520q-19 0 -19 14zM307 137h180q42 0 66.5 1.5t73.5 18.5t88 50q55 45 84.5 113.5t29.5 134.5q0 190 -235 190h-180zM444 782h129q153 0 230 68q51 44 86 115t35 137q0 74 -35 115q-44 49 -131 49h-211z" />
<glyph unicode="&#x413;" horiz-adv-x="960" d="M-39 14q0 3 8 31l17 61q4 21 22 21h135l244 1149h-137q-17 0 -17 14q0 3 7 31l16 61q4 21 25 21h784q9 0 14.5 -5.5t3.5 -13.5l-71 -333q-4 -23 -25 -23h-94q-19 0 -19 12q0 2 1 4.5t2 7t2 7.5l43 207h-375l-242 -1139h164q7 0 10.5 -1.5t5.5 -8t-2 -19.5l-16 -78 q-4 -20 -25 -20h-462q-19 0 -19 14z" />
<glyph unicode="&#x414;" horiz-adv-x="1245" d="M-127 -344l94 444q1 7 2.5 12t4 9t4 7t5 4.5t5 2.5t6.5 1.5t6.5 0.5h8h7.5h70q102 145 178.5 289t127 284.5t81.5 259t59 263.5l9 43h-138q-16 0 -16 14q0 7 6 31l17 61q4 21 24 21h907q19 0 19 -14q0 -3 -8 -31l-17 -62q-4 -20 -22 -20h-135l-242 -1139h113q28 0 32 -4 q3 -3 3.5 -7t0 -7.5t-2 -9.5t-1.5 -9l-94 -450q-8 -25 -31 -25h-110q-25 0 -19 31l74 344h-795l-73 -350q-8 -25 -31 -25h-111q-24 0 -18 31zM252 137h524l240 1129h-328l-49 -228q-55 -257 -148.5 -474t-238.5 -427z" />
<glyph unicode="&#x415;" d="M-43 14q0 3 8 31l17 61q4 21 22 21h135l244 1149h-137q-17 0 -17 14q0 3 7 31l16 61q4 21 24 21h799q9 0 15 -5.5t4 -13.5l-62 -286q-4 -23 -24 -23h-95q-18 0 -18 12q0 3 4 19l33 160h-389l-99 -469h426q25 0 17 -31l-17 -82q-5 -25 -28 -25h-428l-111 -522h404l41 195 q0 6 5.5 14t18.5 8h100q15 0 11 -22l-64 -307q-6 -25 -31 -25h-813q-18 0 -18 14z" />
<glyph unicode="&#x416;" horiz-adv-x="1660" d="M-20.5 97q-0.5 4 0 6t1 5t3 5t6 4.5t9.5 4.5t15 3l41 6q65 8 105 62q16 23 45 79l143 279q75 144 211 192q-57 28 -80.5 78.5t-34.5 145.5l-16 135q-14 106 -29 129q-23 32 -65 43l-31 8q-25 7 -27 15.5t7 19.5l43 92q8 19 18.5 22.5t24.5 -1.5l18 -5q91 -18 135 -86 q23 -38 33 -104q3 -23 6.5 -59t5.5 -48l15 -122q5 -47 12.5 -78.5t24 -64.5t46.5 -49.5t74 -16.5h86l103 479h-129q-17 0 -20 9t1 15l17 78l1 5q1 5 1.5 6l2.5 5t4.5 5t7.5 2.5t11 1.5h418q27 0 21 -25l-17 -78q-4 -24 -30 -24h-130l-102 -479h111q22 0 37 2t37 12 t39.5 28.5t40 53t44.5 84.5l66 151q58 138 100 189q70 87 213 108l27 5q14 2 22 -1.5t10 -7.5t3 -12l8 -92q1 -9 -1 -15t-7.5 -9.5t-8.5 -5t-11 -3.5t-9 -2l-29 -6q-60 -12 -86 -35q-38 -33 -90 -156l-49 -114q-48 -113 -100 -169t-119 -83q49 -29 84 -76t41 -104l26 -267 q1 -9 3 -28t3 -26t3 -18.5t5 -18.5t7 -13q20 -30 72 -37l36 -6l5 -1q4 -1 6.5 -2t6.5 -4t6 -6t2 -8.5t-3 -11.5l-47 -98q-9 -22 -24.5 -24t-43.5 5q-135 19 -172 113q-15 41 -26 186l-17 207q-10 178 -145 178h-105l-112 -532h129q26 0 20 -25l-16 -77q-4 -25 -31 -25h-418 q-17 0 -19.5 9.5t1.5 15.5l16 77v4q1 3 1.5 4t1.5 4t2 4l3.5 3.5t5 3t6.5 1.5t9 1h129l113 532h-111q-38 0 -69.5 -12t-50 -25.5t-38.5 -44t-27 -45t-24 -51.5l-96 -207q-9 -19 -24.5 -52t-21 -44.5t-14.5 -30t-15 -28.5t-13 -19q-65 -94 -219 -120l-25 -5q-32 -8 -46 -6 t-15 25l-8 98q0 1 -0.5 5z" />
<glyph unicode="&#x417;" d="M51 111l55 256q0 2 2.5 6.5t8.5 10t14 5.5h96q17 0 17 -14q0 -3 -6 -27l-39 -186l14 -8q32 -18 88 -31.5t90 -13.5q131 0 228.5 106t97.5 252q0 91 -58 141q-24 20 -54 30.5t-52 12.5t-57 2h-76q-27 0 -21 25l19 88q5 25 33 25h47q134 0 217 71q50 42 83 112t33 146 q0 48 -16.5 83t-37.5 52t-50.5 26.5t-45 11t-30.5 1.5q-89 0 -178 -41l-27 -12l-36 -172q-2 -13 -3.5 -20t-5 -10.5t-4 -4.5t-7.5 -0.5t-9 0.5h-94q-7 0 -13.5 4.5t-3.5 16.5l43 211q8 39 43 63q16 12 39.5 25.5t66.5 33t103 32t123 12.5q147 0 230 -80q77 -77 77 -201 q0 -93 -38.5 -179.5t-102.5 -146.5q-60 -57 -141 -84q41 -12 72.5 -33.5t49 -49.5t29 -53t15.5 -55.5t5 -44t1 -30.5q0 -103 -45.5 -202t-118.5 -169q-138 -133 -346 -133q-151 0 -275 72q-57 32 -49 68z" />
<glyph unicode="&#x418;" horiz-adv-x="1310" d="M-39 14q0 3 8 31l17 61q4 21 22 21h135l244 1149h-137q-17 0 -17 14q0 3 7 31l16 61q4 21 25 21h434q16 0 16 -14q0 -1 -8 -33l-16 -60q-3 -7 -4.5 -10t-7 -6.5t-13.5 -3.5h-135l-182 -862l708 839l4 23h-133q-16 0 -16 14q0 7 6 31l16 61q4 21 25 21h434q16 0 16 -14 q0 -1 -8 -33l-16 -60q-3 -7 -4.5 -10t-7 -6.5t-13.5 -3.5h-139l-244 -1149h135q17 0 17 -14q0 -1 -8 -33l-17 -62q-4 -18 -24 -18h-430q-19 0 -19 14q0 3 8 31l17 61q4 21 22 21h140l184 862l-709 -839l-6 -23h139q17 0 17 -14q0 -1 -8 -33l-17 -62q-4 -18 -24 -18h-430 q-19 0 -19 14z" />
<glyph unicode="&#x419;" horiz-adv-x="1310" d="M-39 14q0 3 8 31l17 61q4 21 22 21h135l244 1149h-137q-17 0 -17 14q0 3 7 31l16 61q4 21 25 21h434q16 0 16 -14q0 -1 -8 -33l-16 -60q-3 -7 -4.5 -10t-7 -6.5t-13.5 -3.5h-135l-182 -862l708 839l4 23h-133q-16 0 -16 14q0 7 6 31l16 61q4 21 25 21h434q16 0 16 -14 q0 -1 -8 -33l-16 -60q-3 -7 -4.5 -10t-7 -6.5t-13.5 -3.5h-139l-244 -1149h135q17 0 17 -14q0 -1 -8 -33l-17 -62q-4 -18 -24 -18h-430q-19 0 -19 14q0 3 8 31l17 61q4 21 22 21h140l184 862l-709 -839l-6 -23h139q17 0 17 -14q0 -1 -8 -33l-17 -62q-4 -18 -24 -18h-430 q-19 0 -19 14zM629 1714v10q1 6 2.5 9.5t5 6t5 3t7.5 1.5l6 1l74 14q6 2 21 2q8 0 12 -5t4 -7.5v-13.5v-13v-14v-15.5t0.5 -14t2 -15.5t3.5 -13t5.5 -14t8.5 -12q25 -33 86 -33q90 0 138 82q25 50 30 70q0 1 0.5 3.5t0.5 3.5t0.5 3t1.5 2.5t2 2t2.5 2t4 1t5.5 0.5t7 -0.5 t9 -1.5l86 -14q1 0 5 -1l6 -1.5t5 -2t4 -4.5t1 -7q0 -7 -11 -35q-12 -29 -20.5 -46.5t-32.5 -49t-55 -54.5q-88 -67 -207 -67q-139 0 -190 88q-15 24 -23 54.5t-9 44.5t-3 50z" />
<glyph unicode="&#x41a;" horiz-adv-x="1198" d="M-38 9.5q-3 9.5 1 15.5l17 77l1 5q1 5 1.5 6l2.5 5t4.5 5t7.5 2.5t11 1.5h129l244 1149h-129q-17 0 -20 9t1 15l17 78v4q1 3 1.5 4t1.5 4t2 4l3.5 3.5t5 3t6.5 1.5t9 1h417q27 0 21 -25l-17 -78q-4 -24 -30 -24h-129l-103 -479h185q28 0 47 4.5t45.5 20.5t53 55t52.5 100 l66 156q38 91 66.5 138t68.5 81q73 61 178 73l33 5q31 8 35 -21l12 -92q2 -13 -6 -21.5t-14.5 -10t-16.5 -3.5l-47 -6q-66 -8 -104 -59q-29 -37 -68 -132l-49 -114q-44 -102 -74 -142q-56 -78 -145 -110q11 -6 24 -16.5t36.5 -32.5t40.5 -56.5t22 -74.5l32 -267 q0 -4 1.5 -19t2.5 -21t3 -18.5t5 -19.5t7.5 -16t11.5 -16q21 -25 62 -31l36 -6q32 -6 23 -33l-47 -98q-9 -21 -26 -23.5t-44 4.5q-62 12 -96.5 29t-58.5 57q-7 11 -12.5 23.5t-9 28.5t-6.5 27.5t-5 32.5t-3 31t-2.5 34.5t-2.5 31.5l-17 203q-15 186 -178 186h-145l-113 -532 h129q26 0 20 -25l-16 -77q-4 -25 -31 -25h-417q-17 0 -20 9.5z" />
<glyph unicode="&#x41b;" horiz-adv-x="1214" d="M-82 -10l2 106q0 39 29 41l22 2q85 7 142.5 53.5t109.5 145.5q71 140 145 360t117 398l43 180h-137q-16 0 -16 14q0 7 6 31l16 61q4 21 23 21h895q14 0 14 -14q0 -15 -6 -33l-16 -60q-6 -20 -27 -20h-135l-244 -1149h139q17 0 17 -14q0 -1 -8 -33l-17 -62q-4 -18 -24 -18 h-430q-19 0 -19 14q0 3 8 31l17 61q4 21 22 21h135l242 1139h-307l-72 -299q-17 -71 -41 -153.5t-67 -215t-100 -254t-115 -194.5q-113 -147 -289 -175q-26 -7 -50 -5t-24 20z" />
<glyph unicode="&#x41c;" horiz-adv-x="1402" d="M-72 14q0 4 1.5 8.5t4 11t3.5 11.5l16 61q4 21 22 21h134l309 1149h-137q-17 0 -17 14q0 7 6 31l17 61q4 21 24 21h275q13 0 19 -2.5t7 -6.5t2 -16l82 -714q4 -20 4 -60l2 -43h5q4 17 11.5 36t13 30.5t13.5 26t9 16.5l385 714q0 1 1.5 4t2.5 4.5t3 4t5 3.5t7.5 2t10.5 1 h299q17 0 17 -14q0 -1 -8 -33l-17 -60q-4 -22 -24 -20h-131l-181 -1149h140q16 0 16 -14q0 -1 -8 -33l-17 -62q-4 -18 -24 -18h-424q-19 0 -19 14q0 4 1.5 8.5t4 11t3.5 11.5l16 61q4 21 23 21h133l176 954q8 47 22 105h-4q-34 -79 -47 -105l-389 -719q-6 -12 -10 -17.5 t-12 -11t-17 -5.5h-59h-5h-5.5t-4.5 0.5t-4.5 2t-4 4.5t-3.5 8t-2 11l-76 727q-5 54 -6 64q0 4 -1 13t-1 13t-1 13.5t-1 13.5h-4q-3 -49 -18 -117l-228 -954h139q17 0 17 -14q0 -1 -8 -33l-17 -62q-4 -18 -24 -18h-424q-19 0 -19 14z" />
<glyph unicode="&#x41d;" horiz-adv-x="1253" d="M-39 14q0 3 8 31l17 61q4 21 22 21h135l244 1149h-137q-17 0 -17 14q0 3 7 31l16 61q4 21 25 21h434q16 0 16 -14q0 -1 -8 -33l-16 -60q-3 -7 -4.5 -10t-7 -6.5t-13.5 -3.5h-135l-103 -479h478l102 479h-137q-17 0 -17 14q0 3 7 31l16 61q4 21 25 21h434q16 0 16 -14 q0 -1 -8 -33l-17 -60q-3 -8 -4 -10t-6.5 -6t-13.5 -4h-135l-244 -1149h139q17 0 17 -14q0 -3 -1.5 -8t-3.5 -12t-4 -13l-16 -62q-4 -18 -24 -18h-431q-18 0 -18 14q0 3 8 31l17 61q4 21 22 21h135l113 532h-477l-113 -532h139q17 0 17 -14q0 -1 -8 -33l-17 -62 q-4 -18 -24 -18h-430q-19 0 -19 14z" />
<glyph unicode="&#x41e;" horiz-adv-x="1099" d="M106 383q0 172 28 337t94 321.5t161 252.5q71 71 149 104.5t183 33.5q176 0 266 -109q49 -59 65.5 -132.5t16.5 -172.5q0 -174 -30 -343.5t-96 -324.5t-159 -246q-71 -71 -149 -102t-178 -31q-99 0 -164.5 29.5t-114.5 99.5q-45 62 -58.5 127.5t-13.5 155.5zM274 350 q0 -116 45 -176q48 -65 152 -65q106 0 173.5 67t123.5 201q67 162 100 334t33 323q0 74 -12 125.5t-53 89.5q-48 45 -127 45q-87 0 -158 -53.5t-135 -187.5q-66 -140 -104 -339t-38 -364z" />
<glyph unicode="&#x41f;" horiz-adv-x="1239" d="M-39 14q0 3 8 31l17 61q4 21 22 21h135l244 1149h-137q-17 0 -17 14q0 3 7 31l16 61q4 21 25 21h1056q17 0 17 -14q0 -1 -8 -33l-17 -60q-3 -8 -4 -10t-6.5 -6t-13.5 -4h-136l-243 -1149h139q16 0 16 -14q0 -1 -8 -33l-16 -62q-4 -18 -25 -18h-430q-18 0 -18 14q0 3 8 31 l16 61q4 21 23 21h135l242 1139h-463l-242 -1139h139q17 0 17 -14q0 -1 -8 -33l-17 -62q-4 -18 -24 -18h-430q-19 0 -19 14z" />
<glyph unicode="&#x420;" horiz-adv-x="1081" d="M-39 14q0 3 8 31l17 61q4 21 22 21h135l244 1149h-137q-17 0 -17 14q0 3 7 31l16 61q4 21 23 21h450q161 0 240 -55q102 -75 102 -246q0 -138 -56 -245t-130 -167q-115 -94 -332 -94h-150l-100 -469h160q16 0 16 -14q0 -1 -8 -33l-16 -62q-4 -18 -25 -18h-450 q-19 0 -19 14zM434 733h127q166 0 236 70q46 44 76 117.5t30 150.5q0 123 -57 168q-36 27 -103 27h-196z" />
<glyph unicode="&#x421;" horiz-adv-x="964" d="M104 393q0 161 35.5 339t104.5 325q43 92 96 161.5t102.5 109t104 64t96.5 32.5t84 8q102 0 197 -43q41 -17 76.5 -46t35.5 -53q0 -12 -4 -24l-47 -211q-4 -21 -24 -21h-95q-16 0 -16 13q0 8 4 22l37 172l-23 12q-73 41 -151 41q-213 0 -340 -344q-50 -136 -77.5 -295 t-27.5 -284q0 -129 60 -199q54 -63 149 -63q93 0 183 63l20 14l37 172q1 8 2.5 12t7 7.5t14.5 3.5h95q23 0 12 -43l-41 -195q-6 -32 -20 -43q-61 -49 -166.5 -89t-190.5 -40q-158 0 -244 109q-86 108 -86 313z" />
<glyph unicode="&#x422;" horiz-adv-x="909" d="M106 14q0 4 1.5 8.5t4 11t3.5 11.5l16 61q4 21 23 21h135l243 1139h-200l-45 -217q-4 -21 -27 -21h-94q-16 0 -16 14q0 4 6 31l63 307q4 23 29 23h790q17 0 17 -14q0 -1 -6 -31l-66 -309q-4 -21 -27 -21h-94q-16 0 -16 14q0 7 6 31l41 193h-201l-243 -1139h155 q17 0 17 -14q0 -3 -1.5 -8t-3.5 -12t-4 -13l-16 -62q-4 -18 -25 -18h-446q-19 0 -19 14z" />
<glyph unicode="&#x423;" horiz-adv-x="1093" d="M39 92l49 68q9 14 23 14q9 0 39 -20q70 -45 131 -45q81 0 139 61q36 38 92 152l23 47h-64q-14 0 -20 4.5t-9 23.5l-147 879h-119q-16 0 -16 14q0 7 6 31l16 61q4 21 25 21h385q16 0 16 -14q0 -1 -8 -33l-16 -60q-3 -7 -4.5 -10t-7 -6.5t-13.5 -3.5h-100l96 -567l31 -242 h6q34 76 62.5 136t45 95t21.5 45l266 533h-129q-16 0 -16 14q0 7 6 31l16 61q4 21 25 21h375q16 0 16 -14q0 -1 -8 -33l-17 -60q-3 -8 -4 -10t-6.5 -6t-13.5 -4h-78l-526 -1030q-25 -50 -67 -108.5t-81 -90.5q-94 -76 -223 -76q-104 0 -193 60q-46 31 -24 61z" />
<glyph unicode="&#x424;" horiz-adv-x="1251" d="M106 557q0 70 19.5 158.5t48.5 156.5q59 142 181 224t296 82h31l27 120h-129q-27 0 -21 25l19 82l1 5q1 5 1.5 6l2.5 5t4.5 5t7.5 2.5t11 1.5h418q26 0 20 -25l-18 -82v-3q-1 -4 -1.5 -5t-1.5 -4t-2 -4l-3.5 -3.5t-5 -3t-6.5 -1.5t-9 -1h-129l-26 -120h30q85 0 149 -19 t116 -69q84 -84 84 -222q0 -78 -31 -209q-40 -154 -121 -243q-61 -68 -161.5 -116t-231.5 -48h-31l-24 -121h129q16 0 19 -8.5t-1 -16.5l-16 -81q-4 -25 -31 -25h-418q-17 0 -19.5 9.5t1.5 15.5l16 81q6 25 31 25h129l24 121h-30q-188 0 -279 102q-70 80 -70 203zM266 565 q0 -49 12.5 -81.5t45.5 -57.5q59 -47 170 -47h18l143 672h-18q-70 0 -124.5 -16.5t-90 -47.5t-58 -64t-40.5 -77q-58 -144 -58 -281zM672 379h18q119 0 197 51q74 50 117 152q57 138 57 278q0 90 -49 137q-56 54 -178 54h-19z" />
<glyph unicode="&#x425;" horiz-adv-x="1028" d="M-137 14q0 3 8 31l16 61q4 21 23 21h100l455 606l-180 543h-119q-16 0 -16 14q0 7 6 31l16 61q4 21 25 21h403q16 0 16 -14q0 -1 -8 -33l-16 -60q-3 -7 -4.5 -10t-7 -6.5t-13.5 -3.5h-112l98 -299l33 -107l16 31q32 58 53 84l222 291h-123q-17 0 -17 14q0 7 6 31l17 61 q4 21 24 21h396q16 0 16 -14q0 -1 -8 -33l-17 -60q-3 -8 -4 -10t-6.5 -6t-13.5 -4h-88l-420 -543l209 -606h119q16 0 16 -14q0 -1 -8 -33l-17 -62q-4 -18 -24 -18h-412q-18 0 -18 14q0 3 8 31l16 61q4 21 23 21h121l-146 453l-336 -453h140q16 0 16 -14q0 -1 -8 -33l-16 -62 q-4 -18 -25 -18h-416q-18 0 -18 14z" />
<glyph unicode="&#x426;" horiz-adv-x="1239" d="M-39 14q0 1 8 33l17 59q7 17 15 20q4 1 9 1h135l244 1149h-139q-17 0 -17 14q0 4 1.5 8.5t3.5 11.5t4 13l16 61q4 19 25 19h430q18 0 18 -14q0 -3 -8 -31l-16 -62q-4 -20 -23 -20h-135l-242 -1139h463l242 1139h-140q-16 0 -16 14q0 1 8 33l17 61q4 19 24 19h430 q19 0 19 -14q0 -3 -8 -31l-17 -62q-4 -20 -22 -20h-136l-241 -1139h114q29 0 33 -4q3 -3 3.5 -7t0 -7.5t-2 -9.5t-1.5 -9l-96 -454l-1 -3q-1 -3 -2 -4.5t-3.5 -4.5t-5 -4.5t-7.5 -3t-10 -1.5h-110q-25 0 -19 31l74 344h-920q-16 0 -16 14z" />
<glyph unicode="&#x427;" horiz-adv-x="1189" d="M182 1290q0 7 6 31l17 61q4 21 24 21h435q16 0 16 -14q0 -1 -8 -33l-17 -60q-3 -8 -4 -10t-6.5 -6t-13.5 -4h-135l-80 -381q-6 -30 -6 -61q0 -40 14 -72q35 -68 143 -68q62 0 148 21q80 22 137 47l109 514h-138q-16 0 -16 14q0 7 6 31l16 61q4 21 25 21h434q17 0 17 -14 q0 -3 -1.5 -8t-3.5 -12t-4 -13l-16 -60q-3 -7 -4.5 -10t-7 -6.5t-13.5 -3.5h-135l-243 -1149h139q16 0 16 -14q0 -1 -8 -33l-16 -62q-4 -18 -25 -18h-451q-18 0 -18 14q0 3 8 31l17 61q4 21 22 21h156l106 498q-173 -68 -297 -68q-167 0 -239 105q-41 62 -41 145q0 40 10 88 l80 381h-137q-17 0 -17 14z" />
<glyph unicode="&#x428;" horiz-adv-x="1673" d="M-39 14q0 1 8 33l17 59q7 17 15 20q4 1 9 1h135l244 1149h-139q-17 0 -17 14q0 4 1.5 8.5t3.5 11.5t4 13l16 61q4 19 25 19h430q18 0 18 -14q0 -3 -8 -31l-16 -62q-4 -20 -23 -20h-135l-242 -1139h369l266 1247q5 19 25 19h118q19 0 19 -14q0 -7 -3.5 -17.5l-4.5 -13.5 l-260 -1221h368l242 1139h-139q-17 0 -17 14q0 1 8 33l17 61q4 19 24 19h430q19 0 19 -14q0 -3 -8 -31l-17 -62q-4 -20 -22 -20h-135l-244 -1149h137q17 0 17 -14q0 -3 -7 -31l-16 -62q-4 -20 -25 -20h-1491q-16 0 -16 14z" />
<glyph unicode="&#x429;" horiz-adv-x="1673" d="M-39 14q0 1 8 33l17 59q7 17 15 20q4 1 9 1h135l244 1149h-139q-17 0 -17 14q0 4 1.5 8.5t3.5 11.5t4 13l16 61q4 19 25 19h430q18 0 18 -14q0 -3 -8 -31l-16 -62q-4 -20 -23 -20h-135l-242 -1139h369l266 1247q5 19 25 19h118q19 0 19 -14q0 -7 -3.5 -17.5l-4.5 -13.5 l-260 -1221h368l242 1139h-139q-17 0 -17 14q0 1 8 33l17 61q4 19 24 19h430q19 0 19 -14q0 -3 -8 -31l-17 -62q-4 -20 -22 -20h-135l-242 -1139h115q28 0 32 -4q3 -3 3.5 -7t0 -7.5t-2 -9.5t-1.5 -9l-96 -454l-1 -3q-1 -3 -2 -4.5t-3.5 -4.5t-5 -4.5t-7.5 -3t-10 -1.5h-110 q-25 0 -19 31l74 344h-1354q-16 0 -16 14z" />
<glyph unicode="&#x42a;" horiz-adv-x="1210" d="M113 14q0 3 8 31l16 61q4 21 23 21h135l242 1139h-201l-45 -217q-4 -21 -27 -21h-96q-16 0 -16 14q0 7 6 31l65 307q4 23 29 23h614q17 0 17 -14q0 -3 -1.5 -8t-3.5 -12t-4 -13l-16 -60q-3 -8 -4 -10t-6.5 -6t-13.5 -4h-136l-98 -469h170q105 0 174 -19.5t127 -80.5 q78 -87 78 -218q0 -142 -64 -254t-155 -169q-109 -66 -283 -66h-516q-18 0 -18 14zM457 137h180q210 0 295 154q20 35 34.5 89t14.5 97q0 39 -14 77t-39 62q-56 54 -193 54h-164z" />
<glyph unicode="&#x42b;" horiz-adv-x="1574" d="M-39 14q0 3 8 31l17 61q4 21 22 21h135l244 1149h-137q-17 0 -17 14q0 3 7 31l16 61q5 23 25 21h434q16 0 16 -14q0 -1 -8 -33l-16 -60q-3 -7 -4.5 -10t-7 -6.5t-13.5 -3.5h-135l-98 -469h169q48 0 80.5 -3t78.5 -13t85.5 -35.5t71.5 -65.5q63 -76 63 -201 q0 -128 -60 -245t-159 -178q-47 -29 -108 -44.5t-101.5 -18.5t-97.5 -3h-491q-19 0 -19 14zM305 137h213q78 0 149.5 39t112.5 115q21 39 35 89.5t14 86.5q0 84 -41 135q-57 68 -204 68h-164zM920 14q0 3 8 31l16 61q4 21 23 21h135l244 1149h-138q-16 0 -16 14q0 7 6 31 l16 61q4 21 25 21h434q17 0 17 -14q0 -3 -1.5 -8t-3.5 -12t-4 -13l-16 -60q-3 -7 -4.5 -10t-7 -6.5t-13.5 -3.5h-135l-243 -1149h139q16 0 16 -14q0 -1 -8 -33l-16 -62q-4 -18 -25 -18h-430q-18 0 -18 14z" />
<glyph unicode="&#x42c;" horiz-adv-x="1058" d="M-39 14q0 3 8 31l17 61q4 21 22 21h135l244 1149h-137q-17 0 -17 14q0 3 7 31l16 61q5 23 25 21h434q16 0 16 -14q0 -1 -8 -33l-16 -60q-3 -7 -4.5 -10t-7 -6.5t-13.5 -3.5h-135l-98 -469h169q97 0 174 -21t136 -88q69 -79 69 -209q0 -143 -64.5 -255.5t-154.5 -167.5 q-108 -66 -276 -66h-522q-19 0 -19 14zM305 137h197q190 0 278 154q49 93 49 176q0 104 -65 156q-63 47 -160 47h-184z" />
<glyph unicode="&#x42d;" horiz-adv-x="1050" d="M51 111l55 256q0 2 2.5 6.5t8.5 10t14 5.5h96q17 0 17 -14q0 -3 -6 -27l-39 -186l22 -12q79 -41 146 -41q279 0 424 530l6 23h-404q-7 0 -10.5 0.5t-8 6.5t-1.5 17l18 88q4 25 31 25h403l9 41q20 100 20 200q0 126 -55 193q-53 61 -142 61q-97 0 -186 -41l-27 -12 l-36 -172q-2 -13 -3.5 -20t-5 -10.5t-4 -4.5t-7.5 -0.5t-9 0.5h-94q-7 0 -13.5 4.5t-3.5 16.5l43 211q4 24 11.5 34.5t31.5 28.5q59 42 145 72.5t181 30.5q165 0 254 -105q51 -61 69.5 -135t18.5 -168q0 -154 -50.5 -358.5t-123.5 -348.5q-175 -346 -490 -346 q-20 0 -39.5 1.5t-36 4t-34 6.5t-29.5 7.5t-27.5 9.5t-24 9t-21.5 9.5t-17.5 9t-16 8.5t-12.5 7q-57 32 -49 68z" />
<glyph unicode="&#x42e;" horiz-adv-x="1595" d="M-39 14q0 3 8 31l17 61q4 21 22 21h135l244 1149h-137q-17 0 -17 14q0 3 7 31l16 61q4 21 25 21h434q16 0 16 -14q0 -1 -8 -33l-16 -60q-3 -7 -4.5 -10t-7 -6.5t-13.5 -3.5h-135l-103 -479h220q20 127 82.5 267t150.5 230q67 70 144 104t176 34q348 0 348 -416 q0 -173 -29.5 -342t-95.5 -324t-160 -246q-136 -133 -328 -133q-172 0 -264 127q-32 45 -49 108.5t-19 100.5t-2 94q0 136 19 258h-221l-113 -532h139q17 0 17 -14q0 -1 -8 -33l-17 -62q-4 -18 -24 -18h-430q-19 0 -19 14zM778 348q0 -116 45 -174q50 -65 150 -65t167 67 t124 201q71 172 102 349.5t31 307.5q0 140 -54 203q-47 57 -139 57q-93 0 -160.5 -58t-125.5 -183q-53 -113 -86.5 -258.5t-43.5 -250.5t-10 -196z" />
<glyph unicode="&#x42f;" horiz-adv-x="1157" d="M-35 92v5v5.5t1 5.5t3 5.5t6 4t10 4.5t15 3l41 6q53 7 82 34.5t72 106.5l139 256q29 53 61 88t80 62q-93 25 -147 95.5t-54 168.5q0 183 123 311q47 49 98.5 81.5t104 46t92 18t90.5 4.5h473q17 0 17 -14q0 -1 -8 -33l-17 -60q-3 -8 -4 -10t-6.5 -6t-13.5 -4h-136 l-243 -1149h139q16 0 16 -14q0 -1 -8 -33l-16 -62q-4 -18 -25 -18h-430q-18 0 -18 14q0 3 8 31l16 61q4 21 23 21h135l109 512h-111q-46 0 -82.5 -16t-63 -47.5t-39 -52.5t-30.5 -58l-100 -203q-8 -17 -25.5 -52.5t-29 -57t-25.5 -41.5q-45 -68 -99 -95t-125 -36l-28 -5 q-26 -6 -43.5 -4.5t-18.5 23.5zM442 946q0 -46 16.5 -80t40.5 -51.5t60 -27.5t64 -12.5t65 -2.5h133l105 488h-158q-82 0 -139 -18t-107 -73q-38 -42 -59 -101.5t-21 -121.5z" />
<glyph unicode="&#x430;" d="M72 272q0 100 28 223.5t74 223.5q40 83 90.5 143.5t102.5 91.5t97.5 44.5t88.5 13.5q54 0 98.5 -18.5t64 -36t42.5 -44.5l10 -12l29 64q7 18 18 18h90q20 0 15 -27l-140 -643q-14 -68 -14 -137q0 -39 2 -57h137q22 0 15 -27l-17 -72q-1 -7 -2.5 -10t-7 -6.5t-14.5 -3.5 h-154q-40 0 -68.5 27.5t-31.5 93.5v37l2 32q-69 -112 -153 -165.5t-171 -53.5q-27 0 -53.5 5.5t-60 25t-58.5 50.5t-42 88t-17 132zM227 281q0 -172 125 -172q110 0 199 117t125 282l59 278l-2 2q-86 86 -182 86q-122 0 -205 -147q-53 -90 -86 -217t-33 -229z" />
<glyph unicode="&#x431;" horiz-adv-x="1009" d="M82 373q0 245 90 489q32 89 73.5 161.5t84 122.5t96 91.5t102 68t109.5 52.5l379 155q29 7 35 3.5t10 -17.5l18 -72q5 -13 0 -23t-26 -18l-432 -180q-81 -34 -144.5 -83t-101 -102.5t-58 -95t-32.5 -83.5l-19 -64h6q25 38 57.5 72.5t76 68t99.5 53t116 19.5q44 0 84.5 -9 t82 -33t72 -61t49.5 -98t19 -139q0 -103 -22 -201.5t-66.5 -185t-107.5 -152t-150.5 -103.5t-188.5 -38q-151 0 -233 101q-35 42 -53 98t-21.5 98t-3.5 105zM248 313q0 -209 178 -209q67 0 136.5 41.5t117.5 122.5q45 75 68.5 180t23.5 199q0 20 -1.5 37.5t-7 44t-18 47.5 t-31.5 40.5t-51 30.5t-73 11q-68 0 -139 -40.5t-117 -121.5q-38 -67 -62 -177.5t-24 -205.5z" />
<glyph unicode="&#x432;" horiz-adv-x="954" d="M80 80l119 565q41 204 159 291q49 37 115 56.5t129 19.5q135 0 211 -76q64 -64 64 -158q0 -84 -54 -155.5t-149 -106.5q64 -20 105.5 -71t41.5 -126t-31 -145.5t-83 -114.5q-102 -88 -301 -88q-88 0 -183 18t-133 52q-16 13 -10 39zM236 123l38 -10q67 -15 138 -15 q115 0 176 47q78 57 78 156q0 71 -48 109q-40 34 -122 34h-191zM332 567h176q101 0 160 55.5t59 133.5q0 9 -1 18.5t-8.5 31.5t-21 37.5t-42 28.5t-68.5 13q-77 0 -135 -43q-41 -31 -62.5 -70t-34.5 -98z" />
<glyph unicode="&#x433;" horiz-adv-x="843" d="M61 197q0 116 66.5 188.5t196.5 132.5q25 10 73 33q11 5 34 16.5t34 16.5q89 43 125.5 81.5t36.5 98.5q0 51 -27 80q-33 35 -104 35q-69 0 -152 -31l-27 -107q-7 -30 -28 -30h-80q-13 0 -17 7t-2 13l39 170q3 15 11.5 25t16 15t22.5 11q133 60 258 60q58 0 103 -15.5 t71 -39t43 -55.5t22.5 -60.5t5.5 -59.5q0 -98 -60 -170t-181 -129l-84 -39q-17 -8 -52.5 -24t-53 -24.5t-40.5 -22t-37 -25.5q-57 -50 -57 -123q0 -57 37.5 -89t103.5 -32q78 0 207 48q14 5 26.5 10t18 7.5t11 4t8.5 2.5h6q6 -1 10 -10l25 -82q3 -11 -5.5 -21.5t-14.5 -13.5 t-23 -12q-155 -66 -303 -66q-132 0 -205 76q-58 58 -58 150z" />
<glyph unicode="&#x434;" d="M68 307q0 134 34 255.5t93 209.5q73 110 176.5 164.5t201.5 54.5q33 0 67 -8t72.5 -26.5t69.5 -56.5t47 -91h5q4 45 4 135q0 387 -326 387q-58 0 -104 -12q-4 -1 -11.5 -3t-10.5 -2.5t-8.5 -1.5t-7.5 0l-5 2.5t-4.5 5.5t-3 9.5t-1.5 13.5l-2 68v16q0 20 58 29 q74 12 120 12q64 0 121 -13t115.5 -49t100 -93t68 -154t26.5 -223q0 -246 -91 -514q-16 -46 -32 -85t-41.5 -87t-53 -86t-66 -75t-81.5 -62t-99.5 -40.5t-119.5 -15.5q-80 0 -139 23.5t-91 58t-51.5 83t-24.5 87.5t-5 84zM223 313q0 -209 180 -209q70 0 137 41t117 131 q42 75 66.5 181.5t24.5 189.5q0 103 -46 156q-48 55 -135 55q-72 0 -138 -39.5t-110 -109.5q-47 -74 -71.5 -185.5t-24.5 -210.5z" />
<glyph unicode="&#x435;" horiz-adv-x="909" d="M68 346q0 183 73 342q16 34 36.5 69t61.5 83.5t88 84t118 61.5t149 26q124 0 193 -71t69 -191q0 -86 -35 -151t-91.5 -104t-140 -63t-169 -32.5t-189.5 -8.5h-8l-2 -51q-5 -105 44.5 -165t148.5 -60q126 0 258 80q29 18 35 18q12 0 18 -12l49 -74q4 -4 4 -10 q0 -11 -30 -31q-162 -115 -355 -115q-151 0 -238 94.5t-87 280.5zM242 518q87 -3 182 9.5t156 39.5q131 57 131 176q0 60 -35.5 101t-106.5 41q-34 0 -66.5 -7.5t-73 -31.5t-74.5 -62.5t-65 -107t-48 -158.5z" />
<glyph unicode="&#x436;" horiz-adv-x="1337" d="M-33 80q-2 15 3 20.5t26 8.5l27 4q40 6 59.5 20.5t42.5 56.5l106 197q13 24 22.5 37.5t28 35.5t45 37t60.5 25q-27 12 -45 29.5t-27.5 41.5t-13 42t-6.5 45l-10 88q-4 48 -19 76q-10 16 -21 21t-32 9l-27 5q-8 1 -11.5 2.5t-8 7t1.5 14.5l41 92q3 6 4.5 8.5t7.5 5.5t15 3 q41 0 81 -18t64 -60q7 -12 11.5 -24.5t8 -30t4.5 -26.5t3.5 -32.5t3.5 -29.5l8 -74q3 -26 4.5 -36.5t6 -32t11.5 -31.5t18 -22t28 -17t40 -5h78l82 385q5 22 19 25l110 27q2 0 7 1t7 1q7 0 11 -4v-15l-88 -420h80q92 0 141 111l47 107q1 1 7.5 16t8 17.5t7.5 16t8.5 17.5 t9 16t10.5 17.5t11.5 15.5t13.5 16.5t14 15t16 15.5q29 24 77 41t91 17q17 0 17 -17l4 -92q0 -11 -6 -16t-25 -8l-22 -5q-23 -4 -31.5 -6.5t-22 -13.5t-25 -31.5t-30.5 -60.5l-39 -82q-14 -30 -24 -47t-30 -44t-48 -45.5t-64 -29.5q89 -30 101 -154l18 -170q5 -42 18 -55 q17 -17 52 -22l22 -4q1 0 8 -1t10 -2.5t3 -5.5q0 -8 -4 -20l-43 -92q-7 -17 -37 -17q-54 0 -94 21q-17 9 -29.5 21t-21 32t-13.5 32t-8.5 40t-4 36t-3.5 40l-13 145q-3 38 -11.5 61t-24.5 33t-29.5 12t-38.5 2h-82l-90 -430q-3 -16 -25 -16h-106q-8 0 -12.5 3.5t-4.5 6v5.5 v1l91 430h-80q-47 0 -79 -21t-65 -87l-69 -145q-41 -87 -66 -122.5t-51 -52.5q-68 -47 -174 -47q-19 0 -21 17z" />
<glyph unicode="&#x437;" horiz-adv-x="851" d="M-14 68q0 12 8 24l33 58q0 1 3 5.5t4.5 7t6 5t10.5 2.5q5 0 33 -14q37 -22 99.5 -40t119.5 -18q123 0 195 82q51 57 51 133q0 67 -43 103q-39 33 -125 33h-80q-27 0 -20 26l14 68q3 15 9.5 21.5t23.5 6.5h49q107 0 170 47q76 55 76 146q0 43 -27 78q-34 43 -115 43 q-90 0 -180 -41l-22 -107q-4 -24 -31 -24h-74q-17 0 -19.5 9t1.5 15l34 164q0 1 0.5 5t1.5 7t7.5 9t17.5 12q58 32 125 51q86 27 176 27q144 0 207 -80q47 -58 47 -146q0 -92 -56.5 -163.5t-150.5 -102.5q68 -20 103 -71q37 -50 37 -127q0 -48 -20.5 -104.5t-55.5 -100.5 q-49 -63 -136.5 -104.5t-205.5 -41.5q-74 0 -150 18.5t-127 51.5q-24 18 -24 27z" />
<glyph unicode="&#x438;" horiz-adv-x="1093" d="M100 879q0 3 1.5 10t2.5 12l11 57l1 4q0 5 0.5 5.5t1 4t1.5 4t3 3t4.5 3t6 1t8.5 0.5h269q20 0 22 -15.5t-4 -27.5l-127 -592q-1 -7 -5 -26t-6.5 -31.5t-4.5 -31.5t-2 -36q0 -114 104 -114q54 0 109 26t92 58q47 40 82.5 108.5t62.5 196.5l94 446q4 21 21 25l106 26 q33 8 29 -16l-152 -711q-16 -78 -16 -106q0 -19 2 -29l2 -14h139q22 0 17 -27l-17 -72q-5 -20 -22 -20h-119q-67 0 -98 27q-31 26 -31 79v46v12h-4q-65 -91 -158 -142t-194 -51q-55 0 -97 21t-64.5 54.5t-33 69t-10.5 70.5q0 38 18 119l119 559h-147q-17 0 -17 15z" />
<glyph unicode="&#x439;" horiz-adv-x="1093" d="M100 879q0 3 1.5 10t2.5 12l11 57l1 4q0 5 0.5 5.5t1 4t1.5 4t3 3t4.5 3t6 1t8.5 0.5h269q20 0 22 -15.5t-4 -27.5l-127 -592q-1 -7 -5 -26t-6.5 -31.5t-4.5 -31.5t-2 -36q0 -114 104 -114q54 0 109 26t92 58q47 40 82.5 108.5t62.5 196.5l94 446q4 21 21 25l106 26 q33 8 29 -16l-152 -711q-16 -78 -16 -106q0 -19 2 -29l2 -14h139q22 0 17 -27l-17 -72q-5 -20 -22 -20h-119q-65 0 -95.5 22t-33.5 84v46v12h-4q-59 -83 -149.5 -138t-200.5 -55q-57 0 -99.5 21t-64.5 55t-32.5 69t-10.5 70q0 38 18 119l119 559h-147q-17 0 -17 15z M416 1366q-1 13 3 20t6.5 8t12.5 2q3 1 4 1l70 12q9 1 15 1.5t10 -1t6 -2.5t3 -4.5t1 -5v-6v-5.5v-12q0 -68 18 -92q25 -33 80 -33q85 0 135 80q21 38 29 66q3 12 7.5 14.5t23.5 -0.5l82 -12q20 -5 20 -17q0 -5 -10 -32q-42 -95 -105 -144q-83 -63 -196 -63q-127 0 -180 82 q-15 24 -23 52.5t-9 42t-3 48.5z" />
<glyph unicode="&#x43a;" horiz-adv-x="999" d="M100 879q0 3 1.5 10t2.5 12l11 57l1 4q0 5 0.5 5.5t1 4t1.5 4t3 3t4.5 3t6 1t8.5 0.5h285q20 0 22 -15.5t-4 -27.5l-79 -367h116q93 0 142 111l47 107q34 77 61 115t74 67q70 39 137 39q6 0 9.5 -1t5.5 -1.5t3 -3t1 -3.5v-4v-4l4 -92q0 -11 -5.5 -16t-25.5 -8l-27 -5 q-34 -5 -55 -26q-19 -19 -49 -86l-39 -82q-14 -30 -24 -47t-30 -44t-48 -45.5t-64 -29.5q88 -30 100 -154l19 -170q5 -42 18 -55q17 -17 51 -22l23 -4q1 0 8 -1t9.5 -2.5t2.5 -5.5q0 -8 -4 -20l-43 -92q-8 -17 -39 -17q-55 0 -92 21q-17 9 -29.5 21t-21 32t-13.5 32t-8.5 40 t-4 36t-3.5 40l-12 145q-3 38 -11.5 61t-24.5 33t-29.5 12t-38.5 2h-117l-90 -426q-5 -20 -25 -20h-106q-20 0 -15 27l179 837h-164q-17 0 -17 15z" />
<glyph unicode="&#x43b;" horiz-adv-x="1085" d="M-41 -6v88q0 14 6.5 19t30.5 8l18 2q45 5 78 18.5t74 48t79 105.5t74 178q61 182 93 321l18 82h-141q-17 0 -17 15q0 3 1.5 10t2.5 12l11 57l1 4q0 5 0.5 5.5t1 4t1.5 4t3 3t4.5 3t6 1t8.5 0.5h627q7 0 15 -4.5t8 -9.5q0 -11 -2 -17l-179 -833h138q15 0 17.5 -9.5 t-1.5 -17.5l-16 -72q-5 -20 -23 -20h-158q-55 0 -86 39q-16 21 -16 59q0 32 8 64l146 688h-234l-14 -62q-53 -227 -119 -411q-23 -66 -46 -115t-57.5 -104t-83 -95.5t-108.5 -64.5q-74 -27 -127 -27h-10q-15 0 -22.5 3.5t-9 8t-1.5 11.5z" />
<glyph unicode="&#x43c;" horiz-adv-x="1337" d="M-41 -6v88q0 13 7 19.5t30 7.5q87 5 137 55.5t84 136.5q81 201 162 563h-141q-17 0 -17 15q0 3 1.5 10t2.5 12l11 57v4q1 5 1.5 5.5t1 4t1.5 4t3 3t4.5 3t6 1t8.5 0.5h316q4 0 6 -0.5t4.5 -5t3.5 -12.5l70 -445q13 -84 10 -143h6q24 68 67 143l259 445q6 18 22 18h152h2 q4 0 6 -0.5t3.5 -4.5t0.5 -13l-129 -846h127q15 0 17.5 -9.5t-1.5 -17.5l-16 -72q-5 -20 -23 -20h-153q-55 0 -86 39q-17 23 -17 59q0 8 4.5 34.5t4.5 29.5l102 565q2 8 6 31t8 45h-4q-8 -27 -37 -76l-286 -498q-9 -14 -13.5 -17t-15.5 -3h-76h-4.5h-4t-3 0.5t-3 2t-2 3.5 t-2 5.5t-1.5 8.5l-76 498q-6 30 -6 76h-4q-5 -27 -17 -76q-56 -224 -92 -350q-69 -228 -170 -318q-51 -46 -111 -67t-104 -21h-10q-15 0 -22.5 3.5t-9 8t-1.5 11.5z" />
<glyph unicode="&#x43d;" horiz-adv-x="1105" d="M100 879q0 3 1.5 10t2.5 12l11 57l1 4q0 5 0.5 5.5t1 4t1.5 4t3 3t4.5 3t6 1t8.5 0.5h285q20 0 22 -15.5t-4 -27.5l-79 -371h395l80 375q4 22 20 25l107 26q34 8 28 -16l-184 -860h137q22 0 17 -27l-17 -72q-5 -20 -22 -20h-158q-55 0 -86 39q-16 21 -16 59q0 32 8 64 l59 280h-395l-88 -417q-4 -25 -31 -25h-98q-17 0 -20 9.5t1 15.5l179 839h-164q-17 0 -17 15z" />
<glyph unicode="&#x43e;" horiz-adv-x="985" d="M68 313q0 263 120 459q43 69 95.5 118.5t107 74.5t103 36t98.5 11q139 0 225 -86q47 -47 67.5 -108t20.5 -152q0 -117 -33 -240.5t-94 -220.5q-41 -65 -93 -112.5t-106 -73t-103.5 -37t-98.5 -11.5q-135 0 -219 78q-90 85 -90 264zM223 317q0 -97 41 -151q43 -57 125 -57 q46 0 90.5 15t93.5 55t84 102q44 77 68.5 182t24.5 201q0 52 -11 92t-47 73q-48 45 -123 45q-68 0 -137.5 -40t-120.5 -134q-40 -75 -64 -180t-24 -203z" />
<glyph unicode="&#x43f;" horiz-adv-x="1099" d="M100 16q0 4 2.5 13t3.5 16l146 686q10 57 10 96q0 25 -2 37h-141q-17 0 -17 15q0 3 1.5 8.5t2.5 9.5l13 61q0 1 0.5 4.5t1 4.5t1 4t1.5 4l3 3t4.5 3t6 1.5t8.5 0.5h211q30 0 39.5 -49t5.5 -107l-2 -32h4q53 78 144 145q97 72 221 72q50 0 88 -13.5t57 -32t31 -43.5 t14.5 -42t2.5 -33q0 -43 -21 -143l-123 -586h135q22 0 17 -27l-17 -72q-5 -20 -22 -20h-158q-33 0 -56 12.5t-31.5 30.5t-11.5 29.5t-3 19.5v17q0 14 4 30l119 566q12 60 12 81q0 88 -88 88q-160 0 -279 -178q-71 -105 -96 -229l-94 -447q-4 -20 -25 -20h-106q-17 0 -17 16z " />
<glyph unicode="&#x440;" horiz-adv-x="1042" d="M-121 -399q0 6 6 30l11 50q4 24 26 24h113l207 965q16 75 16 127q0 21 -4 67h-145q-17 0 -17 15q0 3 6 30l11 49q4 25 26 25h203q27 0 40.5 -12.5t17 -29.5t6.5 -51q1 -11 1 -16l3 -20h4q149 158 321 158q232 0 232 -312q0 -124 -29 -257.5t-84 -231.5 q-37 -66 -85 -114.5t-99 -75t-98.5 -38.5t-94.5 -12q-103 0 -194 54l-25 14l-72 -334h140q21 0 10 -37l-15 -61q-3 -21 -24 -21h-397q-17 0 -17 15zM283 170l20 -12l13 -7q12 -7 15 -8.5t16 -7.5t19 -8.5t19 -6.5t23 -6t24 -3.5t27 -1.5q151 0 239 141q57 91 83 218t26 230 q0 27 -1.5 47t-8.5 46t-19.5 42.5t-36.5 28.5t-57 12q-48 0 -96.5 -22.5t-94.5 -66t-83.5 -118t-57.5 -169.5z" />
<glyph unicode="&#x441;" horiz-adv-x="813" d="M72 309q0 134 38.5 266t104.5 228q44 62 97 105.5t106.5 64.5t98 30t87.5 9q44 0 97 -12t87 -29q32 -16 40 -30.5t3 -39.5l-43 -201q-4 -22 -26 -22h-90q-19 0 -19 14q0 9 4 23l31 139l-6 2q-56 18 -98 18q-70 0 -145.5 -45.5t-125.5 -138.5q-39 -72 -62.5 -182.5 t-23.5 -192.5q0 -59 16.5 -100t45 -62t58.5 -29.5t65 -8.5q31 0 60 5.5t53.5 16t41 19t35 20.5t23.5 14q16 8 20 9h6q7 0 11 -9l30 -71q0 -1 3 -7t3 -10q0 -13 -28 -32q-143 -99 -310 -99q-151 0 -223 97q-36 50 -50.5 118t-14.5 123z" />
<glyph unicode="&#x442;" horiz-adv-x="1572" d="M100 16q0 4 2.5 13t3.5 16l146 686q10 40 10 96q0 25 -2 37h-141q-17 0 -17 15q0 3 1.5 8.5t2.5 9.5l13 61q0 1 0.5 4.5t1 4.5t1 4t1.5 4l3 3t4.5 3t6 1.5t8.5 0.5h211q30 0 39.5 -49t5.5 -107l-2 -32h4q57 93 138 155q86 62 190 62q83 0 129 -54t43 -133h4 q55 87 143 137t183 50q82 0 135 -41.5t53 -128.5q0 -45 -20 -137l-125 -586h135q15 0 17.5 -9.5t-1.5 -17.5l-16 -72q-5 -20 -22 -20h-158q-33 0 -56 12.5t-32 30.5t-12 29.5t-3 19.5v17q0 10 5 30l120 566q13 65 13 81q0 37 -20.5 62.5t-67.5 25.5q-44 0 -84 -14 t-67.5 -36.5t-43 -40t-27.5 -35.5q-43 -63 -68 -137t-48 -179l-88 -412q-4 -20 -25 -20h-106q-17 0 -17 16q0 4 2.5 13t3.5 16l140 660q12 60 12 81q0 36 -19.5 62t-66.5 26q-68 0 -135 -46t-115 -132q-58 -99 -84 -229l-94 -447q-4 -20 -25 -20h-106q-17 0 -17 16z" />
<glyph unicode="&#x443;" horiz-adv-x="948" d="M-131 -344q0 5 10 20l47 78q5 10 15 10q12 0 28 -12q68 -45 135 -45q41 0 76 15.5t61.5 44t42.5 51t33 53.5l70 129h-74h-4h-5t-4.5 1t-4.5 3t-3.5 6t-2.5 10l-123 844h-121q-19 0 -12 27l14 70q4 22 27 22h217q17 0 20 -18l115 -885h4l393 905q6 12 17 12q4 0 12 -4 l96 -39q10 -5 10 -12q0 -8 -4 -16l-383 -856q-79 -174 -141 -275q-39 -63 -83.5 -110.5t-110.5 -79.5q-72 -35 -154 -35q-103 0 -184 55q-29 18 -29 31z" />
<glyph unicode="&#x444;" horiz-adv-x="1339" d="M68 289q0 102 36.5 248t83.5 235q32 61 70.5 107t72.5 70.5t71.5 39.5t63 19t50.5 4q91 0 168 -80l76 362h-164q-12 0 -12 15q0 2 1 6t1 6v10l12 58v10q0 1 2.5 3.5t3.5 4.5q0 1 1 2t1 2q1 2 17 2h284q20 0 22.5 -15.5t-3.5 -27.5l-95 -438q102 80 195 80q23 0 46 -3.5 t59.5 -21.5t62.5 -48.5t46 -92t20 -144.5q0 -100 -37 -244.5t-86 -238.5q-68 -128 -158 -188q-88 -59 -188 -60t-150 64l-72 -330h140q4 0 6.5 -0.5t4.5 -2t3 -3t1.5 -4t0.5 -4.5t-0.5 -5.5t-1 -5.5l-1.5 -6t-1 -6l-16 -61q-7 -21 -25 -21h-397q-15 0 -15 15l6 30l11 50 q3 12 8.5 18t7.5 6h8h113l72 330q-80 -64 -172 -64q-119 0 -185 80q-69 86 -69 238zM223 274q0 -82 33 -124q18 -24 49 -38t64 -14q67 0 151 68l135 635q-21 39 -56.5 61.5t-74.5 22.5q-123 0 -196 -156q-41 -88 -73 -233t-32 -222zM668 166q37 -39 65 -53.5t60 -14.5 q149 0 227 205q31 83 57.5 205.5t26.5 204.5q0 83 -29 123q-37 49 -112 49q-76 0 -160 -84z" />
<glyph unicode="&#x445;" horiz-adv-x="872" d="M-57 45q0 6 10 16l407 449l-161 354h-115q-16 0 -16 15q0 6 4 22l12 57q4 25 27 25h182q14 0 20 -14l148 -346q42 60 45 63l250 303q10 10 14 10q6 0 14 -4l107 -43q8 -4 8 -12q0 -6 -8 -14l-381 -416l178 -391h113q16 0 16 -15q0 -2 -0.5 -4t-1.5 -6.5t-2 -9.5l-12 -59 q-4 -25 -27 -25h-182q-18 0 -27 18l-135 310q-13 33 -20 55q-9 -14 -21.5 -28.5t-15.5 -18.5l-277 -334q-11 -16 -22 -16q-4 0 -29 10l-90 37q-12 4 -12 12z" />
<glyph unicode="&#x446;" horiz-adv-x="1083" d="M82 879q0 3 1.5 10t2.5 12l10 57q3 19 12 23q6 2 15 2h268q20 0 22.5 -15.5t-3.5 -27.5l-127 -592q-1 -6 -7 -33t-9 -48.5t-3 -43.5q0 -55 26.5 -84.5t78.5 -29.5q54 0 108 26t92 58q47 40 83 109t63 196l94 446q4 22 20 25l107 26q33 8 29 -16l-152 -711q-8 -40 -8 -69 q0 -46 26 -72h107q2 0 7.5 0.5t7 0t5 -1.5t4 -4t0.5 -8.5t-1 -13.5l-76 -370q-2 -8 -9 -16t-14 -9l-86 -24q-11 -6 -26 -4t-11 22l64 301q-81 5 -113 57q-20 33 -20 95v12h-4q-49 -71 -127 -123q-100 -70 -224 -70q-46 0 -82.5 14.5t-59 36.5t-37.5 51.5t-21 57t-6 55.5 q0 38 18 119l119 559h-148q-16 0 -16 15z" />
<glyph unicode="&#x447;" horiz-adv-x="997" d="M20 879q0 3 2 9.5t3 12.5l10 57l1 4q0 5 0.5 5.5t1 4t1.5 4t3 3t4.5 3t6 1t8.5 0.5h285q20 0 22.5 -15.5t-3.5 -27.5l-68 -322q-4 -24 -4 -36q0 -29 10 -50.5t23 -32t31.5 -17t30 -8t22.5 -1.5q104 0 231 45l90 426q4 21 21 25l106 26q35 9 29 -16l-185 -860h138 q15 0 17.5 -9.5t-1.5 -17.5l-16 -72q-5 -20 -23 -20h-158q-58 0 -86 39q-16 24 -16 59q0 36 8 64l49 229q-78 -29 -131 -42t-110 -13q-106 0 -172 57q-60 54 -60 148q0 43 13 100l47 223h-164q-17 0 -17 15z" />
<glyph unicode="&#x448;" horiz-adv-x="1552" d="M82 879q0 3 1.5 10t2.5 12l10 57q3 19 12 23q6 2 15 2h285q20 0 22 -15.5t-4 -27.5l-141 -661q-13 -65 -13 -82q0 -37 20.5 -62.5t67.5 -25.5q63 0 124 33t104 100q68 105 110 309l84 393q4 21 21 25l106 26q35 9 29 -16l-150 -700q-12 -60 -12 -82q0 -36 19.5 -62 t66.5 -26q68 0 135 46t115 132q58 99 84 229l90 428q4 21 21 25l106 26q35 9 29 -16l-156 -727q-10 -40 -10 -96q0 -25 2 -37h141q17 0 17 -15q0 -3 -1.5 -8.5t-2.5 -9.5l-13 -61q0 -1 -0.5 -4.5t-1 -4.5t-1 -4t-1.5 -4l-3 -3t-4.5 -3t-6 -1.5t-8.5 -0.5h-211 q-30 0 -39.5 49t-5.5 107l2 32h-4q-48 -79 -117 -139q-96 -78 -211 -78q-84 0 -133 58q-44 55 -39 129h-4q-45 -71 -113 -119q-98 -68 -213 -68q-97 0 -149 60q-39 42 -39 110q0 46 20 138l125 585h-164q-16 0 -16 15z" />
<glyph unicode="&#x449;" horiz-adv-x="1552" d="M82 879q0 3 1.5 10t2.5 12l10 57q3 19 12 23q6 2 15 2h285q20 0 22 -15.5t-4 -27.5l-141 -661q-13 -65 -13 -82q0 -37 20.5 -62.5t67.5 -25.5q142 0 228 135q71 112 110 307l84 393q4 21 21 25l106 26q35 9 29 -16l-150 -700q-12 -60 -12 -82q0 -36 19.5 -62t66.5 -26 q68 0 135 46t115 132q58 99 84 229l90 428q4 21 21 25l106 26q33 8 29 -16l-152 -711q-8 -40 -8 -69q0 -45 27 -72h106q2 0 7.5 0.5t7 0t5 -1.5t4 -4t0.5 -8.5t-1 -13.5l-76 -370q-2 -8 -9 -16t-14 -9l-86 -24q-11 -6 -25.5 -4t-10.5 22l63 301q-131 4 -141 154v34h-4 q-20 -36 -47.5 -69.5t-67.5 -69t-94 -57t-113 -21.5q-90 0 -137 56q-43 56 -41 131h-4q-56 -88 -143 -137.5t-179 -49.5q-90 0 -145 47q-47 42 -47 123q0 46 20 138l125 585h-164q-16 0 -16 15z" />
<glyph unicode="&#x44a;" horiz-adv-x="1054" d="M82 721l49 237q3 19 12 23q6 2 15 2h405q20 0 22.5 -15.5t-3.5 -27.5l-76 -352q75 22 156 22q132 0 211 -68.5t79 -193.5q0 -151 -92 -254q-111 -123 -307 -123q-90 0 -178 25.5t-115 44.5q-17 15 -10 39l164 770h-178l-25 -119q-8 -31 -29 -31h-82q-7 0 -14 4.5t-4 16.5 zM406 123l32 -8q57 -17 119 -17q117 0 178.5 68.5t61.5 163.5q0 45 -17.5 77.5t-39 47.5t-52.5 23.5t-45.5 9.5t-30.5 1q-64 0 -133 -20z" />
<glyph unicode="&#x44b;" horiz-adv-x="1386" d="M100 879q0 3 1.5 10t2.5 12l11 57l1 4q0 5 0.5 5.5t1 4t1.5 4t3 3t4.5 3t6 1t8.5 0.5h285q20 0 22 -15.5t-4 -27.5l-75 -350q83 20 149 20q16 0 31 -1t47 -6.5t58.5 -15t57.5 -29.5t52.5 -47.5t36 -71t14.5 -97.5q0 -71 -25.5 -136.5t-73.5 -118.5t-125.5 -84.5 t-172.5 -31.5q-92 0 -181.5 25.5t-113.5 44.5q-12 10 -12 22q0 11 2 17l168 784h-164q-17 0 -17 15zM270 129l31 -8q74 -17 121 -17q110 0 176 66q61 61 61 154q0 74 -49 116q-45 37 -139 37q-65 0 -131 -20zM928 879q0 3 1.5 10t2.5 12l10 57q1 9 2.5 13t7.5 8t17 4h284 q20 0 22.5 -15.5t-3.5 -27.5l-176 -821h137q15 0 17.5 -9.5t-1.5 -17.5l-16 -72q-5 -20 -23 -20h-157q-43 0 -73 26.5t-30 71.5q0 36 8 64l150 702h-164q-16 0 -16 15z" />
<glyph unicode="&#x44c;" horiz-adv-x="919" d="M102 879q0 3 1.5 10t2.5 12l11 57l1 4q0 5 0.5 5.5t1 4t1.5 4t3 3t4.5 3t6 1t8.5 0.5h285q20 0 22 -15.5t-4 -27.5l-75 -350q64 20 149 20q140 0 215 -67q82 -73 82 -195q0 -148 -92 -254q-60 -68 -133.5 -94.5t-165.5 -26.5q-102 0 -188.5 23t-112.5 45q-12 10 -12 22 q0 11 2 17l168 784h-164q-17 0 -17 15zM272 129l31 -8q58 -15 121 -15q45 0 94.5 17t81.5 47q29 27 45.5 69.5t16.5 84.5q0 71 -46 112q-45 41 -145 41q-61 0 -129 -20z" />
<glyph unicode="&#x44d;" horiz-adv-x="876" d="M-14 76q0 8 4 12l53 88q4 8 12 10h4q4 0 21 -10q118 -72 203 -72q58 0 117.5 27t105.5 88q31 42 58.5 104.5t41.5 118.5h-311q-27 0 -21 25l17 78q4 24 31 24h313q6 40 6 78q0 114 -43 168q-47 64 -162 64q-73 0 -141 -29l-25 -119q-8 -31 -28 -31h-90q-8 0 -15 4.5 t-4 16.5l39 186q7 38 47 56q106 49 242 49q169 0 256 -101q80 -92 80 -264q0 -130 -44 -272.5t-139 -251.5q-60 -69 -141 -110.5t-203 -41.5q-39 0 -75 5.5t-66 16.5t-49 19.5t-42 21.5t-28 15q-24 16 -24 27z" />
<glyph unicode="&#x44e;" horiz-adv-x="1406" d="M100 879q0 3 1.5 10t2.5 12l11 57l1 4q0 5 0.5 5.5t1 4t1.5 4t3 3t4.5 3t6 1t8.5 0.5h285q20 0 22 -15.5t-4 -27.5l-79 -371h170q63 243 217 355q124 88 262 88q150 0 233 -90q80 -87 80 -256q0 -261 -135 -469q-148 -226 -399 -226q-165 0 -242 117q-51 78 -51 225 q0 72 8 129h-170l-88 -417q-4 -25 -31 -25h-98q-17 0 -20 9.5t1 15.5l179 839h-164q-17 0 -17 15zM651 317q0 -100 39 -151q41 -57 127 -57q11 0 24 1t46.5 10.5t63 26t66 52t64.5 84.5q41 74 65.5 180.5t24.5 200.5q0 112 -59 167q-48 43 -121 43q-63 0 -126 -35.5 t-111 -111.5q-50 -81 -76.5 -195.5t-26.5 -214.5z" />
<glyph unicode="&#x44f;" horiz-adv-x="999" d="M-33 80q-3 26 25 29l31 4q26 2 53 20q21 13 45 57l96 170q44 77 121 115q-72 22 -115 77t-43 128q0 39 11.5 77.5t41.5 80t75.5 73t121.5 52t172 20.5h266q17 0 20 -9.5t-1 -15.5l-178 -839h137q15 0 17.5 -9.5t-1.5 -17.5l-16 -72q-5 -20 -23 -20h-157q-55 0 -86 39 q-17 23 -17 59q0 32 8 64l54 258h-127q-31 0 -55.5 -10.5t-43 -31.5t-26 -32.5t-19.5 -34.5l-69 -131q-61 -116 -92 -145q-53 -50 -134 -60q-32 -4 -61 -4q-19 0 -21 17zM336 674q0 -57 39 -88q49 -39 119 -39h159l66 309h-148q-109 0 -170 -47q-65 -50 -65 -135z" />
<glyph unicode="&#x451;" horiz-adv-x="909" d="M68 346q0 183 73 342q16 34 36.5 69t61.5 83.5t88 84t118 61.5t149 26q124 0 193 -71t69 -191q0 -86 -35 -151t-91.5 -104t-140 -63t-169 -32.5t-189.5 -8.5h-8l-2 -51q-5 -105 44.5 -165t148.5 -60q126 0 258 80q29 18 35 18q12 0 18 -12l49 -74q4 -4 4 -10 q0 -11 -30 -31q-162 -115 -355 -115q-151 0 -238 94.5t-87 280.5zM242 518q87 -3 182 9.5t156 39.5q131 57 131 176q0 60 -35.5 101t-106.5 41q-34 0 -66.5 -7.5t-73 -31.5t-74.5 -62.5t-65 -107t-48 -158.5zM375 1280q0 41 31.5 72.5t72.5 31.5t73 -31.5t32 -72.5 q0 -42 -32 -73t-73 -31t-72.5 31.5t-31.5 72.5zM750 1280q0 41 31.5 72.5t72.5 31.5t72.5 -31.5t31.5 -72.5q0 -42 -32 -73t-72 -31q-41 0 -72.5 31.5t-31.5 72.5z" />
<glyph unicode="&#x452;" horiz-adv-x="1042" d="M100 16q0 4 2.5 13t3.5 16l230 1079h-117q-26 0 -20 25l12 59q4 25 31 25h116l25 117h-147q-15 0 -15 14q0 4 4 20l13 60q5 24 26 24h264q20 0 22.5 -14t-3.5 -29l-41 -192h280q13 0 18.5 -9t2.5 -22l-12 -53l-1 -3q0 -4 -0.5 -5t-1.5 -4t-2 -4l-3.5 -3.5t-5 -3 t-6.5 -1.5t-9 -1h-283l-37 -172q-8 -46 -45 -153l2 -4q58 84 142 143q103 74 225 74q93 0 143 -58q50 -57 50 -170q0 -204 -64 -415q-96 -330 -268 -557q-99 -131 -246 -258q-36 -33 -51 -33q-8 0 -17 6l-34 33q-7 8 -9 12v10q1 5 4 10.5t6 8.5t9 8.5t8 7.5q68 65 150 176 q214 285 319 696q37 156 37 242q0 143 -113 143q-102 0 -211 -122q-53 -60 -90 -137t-51 -148l-94 -447q-4 -20 -25 -20h-106q-17 0 -17 16z" />
<glyph unicode="&#x453;" horiz-adv-x="843" d="M61 197q0 116 66.5 188.5t196.5 132.5q25 10 73 33q11 5 34 16.5t34 16.5q89 43 125.5 81.5t36.5 98.5q0 51 -27 80q-33 35 -104 35q-69 0 -152 -31l-27 -107q-7 -30 -28 -30h-80q-13 0 -17 7t-2 13l39 170q3 15 11.5 25t16 15t22.5 11q133 60 258 60q58 0 103 -15.5 t71 -39t43 -55.5t22.5 -60.5t5.5 -59.5q0 -98 -60 -170t-181 -129l-84 -39q-17 -8 -52.5 -24t-53 -24.5t-40.5 -22t-37 -25.5q-57 -50 -57 -123q0 -57 37.5 -89t103.5 -32q78 0 207 48q14 5 26.5 10t18 7.5t11 4t8.5 2.5h6q6 -1 10 -10l25 -82q3 -11 -5.5 -21.5t-14.5 -13.5 t-23 -12q-155 -66 -303 -66q-132 0 -205 76q-58 58 -58 150zM442 1188q0 9 11 16l317 223q11 7 16 7q14 0 21 -15l57 -94q6 -6 6 -16q0 -14 -10 -17l-358 -162q-12 -4 -15 -4q-4 0 -6 1t-3 2t-2.5 4t-2.5 4l-29 43q-2 2 -2 8z" />
<glyph unicode="&#x454;" horiz-adv-x="813" d="M72 309q0 134 38.5 266t104.5 228q44 62 97 105.5t106.5 64.5t98 30t87.5 9q44 0 97 -12t87 -29q32 -16 40 -30.5t3 -39.5l-36 -176q-5 -23 -27 -23h-90q-19 0 -19 15q0 5 5 22l24 115l-6 2q-56 18 -98 18q-50 0 -100.5 -21t-86.5 -54q-47 -41 -82 -104t-49 -126h312 q7 0 10.5 -0.5t8 -6.5t1.5 -17l-16 -78q-4 -25 -31 -25h-313q-11 -88 -11 -123q0 -49 11.5 -86.5t29.5 -59t43.5 -35.5t49.5 -18.5t51 -4.5q99 0 213 63q7 5 20 8h6q7 0 11 -8l30 -72l2.5 -5t2.5 -5.5t1 -5.5q0 -14 -28 -33q-143 -86 -310 -86q-151 0 -223 97 q-36 50 -50.5 118t-14.5 123z" />
<glyph unicode="&#x455;" horiz-adv-x="796" d="M2 74q0 7 3.5 19t4.5 18l39 188q4 20 27 20h92q16 0 16 -14q0 -2 -0.5 -4t-1.5 -6.5t-2 -9.5l-28 -142q76 -34 167 -34q85 0 133 49.5t48 115.5q0 33 -10 59.5t-35.5 51t-43 38t-57.5 40.5q-38 26 -54 37.5t-45 37t-41 46.5t-23 54t-11 71q0 67 29 128.5t86 104.5 q94 70 231 70q53 0 105.5 -11.5t89 -36.5t29.5 -57l-39 -186q-4 -21 -27 -21h-90q-25 0 -16 31l28 129q-55 14 -98 14q-74 0 -123 -39t-49 -106q0 -52 31 -85t104 -79q35 -22 49.5 -31.5t46 -37t46.5 -51.5t28.5 -63t13.5 -83q0 -62 -21.5 -119t-64 -104.5t-113.5 -76 t-161 -28.5q-146 0 -268 72q-25 15 -25 31z" />
<glyph unicode="&#x456;" horiz-adv-x="569" d="M92 879q0 8 4 22l13 57q0 1 0.5 4.5t1 4.5t1 4t1.5 4l3 3t4.5 3t6 1.5t8.5 0.5h283q20 0 22 -15.5t-4 -27.5l-174 -821h135q22 0 17 -27l-17 -72q-5 -20 -22 -20h-158q-55 0 -86 39q-16 21 -16 59q0 36 8 64l149 702h-163q-17 0 -17 15zM328 1354q0 47 32.5 80.5 t81.5 33.5q47 0 81 -33.5t34 -80.5q0 -49 -34 -82t-81 -33t-80.5 34t-33.5 81z" />
<glyph unicode="&#x457;" horiz-adv-x="569" d="M92 879q0 8 4 22l13 57q0 1 0.5 4.5t1 4.5t1 4t1.5 4l3 3t4.5 3t6 1.5t8.5 0.5h283q20 0 22 -15.5t-4 -27.5l-174 -821h135q22 0 17 -27l-17 -72q-5 -20 -22 -20h-158q-55 0 -86 39q-16 21 -16 59q0 36 8 64l149 702h-163q-17 0 -17 15zM162 1280q0 41 31.5 72.5 t72.5 31.5t73 -31.5t32 -72.5q0 -42 -32 -73t-73 -31t-72.5 31.5t-31.5 72.5zM453 1280q0 41 31.5 72.5t72.5 31.5t73 -31.5t32 -72.5q0 -42 -32 -73t-73 -31t-72.5 31.5t-31.5 72.5z" />
<glyph unicode="&#x458;" horiz-adv-x="595" d="M-307 -352q0 6 6 18l37 80q6 14 18 14q9 0 37 -14q76 -39 139 -39q95 0 144 100q27 54 59 205l182 852h-163q-17 0 -17 15l6 30l11 49q5 25 26 25h283q22 0 22 -20q0 -11 -4 -23l-211 -989q-43 -204 -114 -283q-40 -46 -102 -72t-130 -26q-109 0 -203 51q-7 2 -16.5 10.5 t-9.5 16.5zM371 1354q0 47 32.5 80.5t81.5 33.5q47 0 81 -33.5t34 -80.5q0 -49 -34 -82t-81 -33t-80.5 34t-33.5 81z" />
<glyph unicode="&#x459;" horiz-adv-x="1431" d="M-41 -6v88q0 14 6.5 19t30.5 8l18 2q45 5 78 18.5t74 48t79 105.5t74 178q61 182 93 321l18 82h-141q-17 0 -17 15q0 3 1.5 10t2.5 12l11 57l1 4q0 5 0.5 5.5t1 4t1.5 4t3 3t4.5 3t6 1t8.5 0.5h625q20 0 22 -14.5t-4 -28.5l-73 -350q75 20 151 20q139 0 215 -69 q80 -71 80 -193q0 -151 -92 -254q-111 -123 -305 -123q-92 0 -181.5 25.5t-113.5 44.5q-12 10 -12 22q0 11 2 17l164 770h-234l-14 -62q-53 -227 -119 -411q-23 -66 -46 -115t-57.5 -104t-83 -95.5t-108.5 -64.5q-74 -27 -127 -27h-10q-15 0 -22.5 3.5t-9 8t-1.5 11.5z M784 129l31 -8q63 -17 125 -17q50 0 96 18t76 48q62 62 62 158q0 73 -48 112q-45 37 -139 37q-59 0 -133 -20z" />
<glyph unicode="&#x45a;" horiz-adv-x="1460" d="M100 879q0 3 1.5 10t2.5 12l11 57l1 4q0 5 0.5 5.5t1 4t1.5 4t3 3t4.5 3t6 1t8.5 0.5h285q13 0 16.5 -6t-0.5 -37l-77 -371h395l80 375q4 22 20 25l107 26q19 5 26 -2q3 -3 3.5 -5t-0.5 -3.5l-2 -3t-1 -2.5l-82 -389q70 20 156 20q68 0 117.5 -14.5t93.5 -54.5 q80 -71 80 -195q0 -149 -92 -252q-111 -123 -305 -123q-92 0 -181.5 25.5t-113.5 44.5q-17 15 -11 39l78 362h-395l-88 -417q-4 -25 -31 -25h-98q-17 0 -20 9.5t1 15.5l177 839h-162q-17 0 -17 15zM813 129l31 -8q60 -17 119 -17q112 0 178 66q61 61 61 156q0 77 -47 114 q-45 37 -139 37q-59 0 -133 -20z" />
<glyph unicode="&#x45b;" horiz-adv-x="1114" d="M100 16q0 4 2.5 13t3.5 16l230 1079h-117q-26 0 -20 25l12 59q4 25 31 25h116l25 117h-147q-15 0 -15 14q0 4 4 20l13 60q5 24 26 24h264q20 0 22.5 -14t-3.5 -29l-41 -192h280q13 0 18.5 -9t2.5 -22l-12 -53l-1 -3q0 -4 -0.5 -5t-1.5 -4t-2 -4l-3.5 -3.5t-5 -3 t-6.5 -1.5t-9 -1h-283l-37 -172q-14 -68 -49 -157h6q147 217 367 217q54 0 93 -14.5t59.5 -40t29.5 -53.5t9 -60q0 -44 -21 -139l-125 -586h137q22 0 17 -27l-17 -72q-5 -20 -22 -20h-158q-55 0 -86 39q-16 21 -16 59q0 32 8 64l115 543q12 60 12 81q0 41 -23 64 q-21 24 -73 24q-55 0 -113 -28.5t-107 -81.5q-47 -53 -88 -134t-59 -163l-94 -447q-4 -20 -25 -20h-106q-17 0 -17 16z" />
<glyph unicode="&#x45c;" horiz-adv-x="999" d="M100 879q0 3 1.5 10t2.5 12l11 57l1 4q0 5 0.5 5.5t1 4t1.5 4t3 3t4.5 3t6 1t8.5 0.5h285q20 0 22 -15.5t-4 -27.5l-79 -367h116q93 0 142 111l47 107q34 77 61 115t74 67q70 39 137 39q6 0 9.5 -1t5.5 -1.5t3 -3t1 -3.5v-4v-4l4 -92q0 -11 -5.5 -16t-25.5 -8l-27 -5 q-34 -5 -55 -26q-19 -19 -49 -86l-39 -82q-14 -30 -24 -47t-30 -44t-48 -45.5t-64 -29.5q88 -30 100 -154l19 -170q5 -42 18 -55q17 -17 51 -22l23 -4q1 0 8 -1t9.5 -2.5t2.5 -5.5q0 -8 -4 -20l-43 -92q-8 -17 -39 -17q-55 0 -92 21q-17 9 -29.5 21t-21 32t-13.5 32t-8.5 40 t-4 36t-3.5 40l-12 145q-3 38 -11.5 61t-24.5 33t-29.5 12t-38.5 2h-117l-90 -426q-5 -20 -25 -20h-106q-20 0 -15 27l179 837h-164q-17 0 -17 15zM563 1186q0 9 10 16l318 223q11 7 16 7q13 0 21 -15l57 -94q6 -6 6 -16q0 -14 -10 -17l-358 -162q-12 -4 -15 -4q-4 0 -6 1 t-3 2t-2.5 4t-2.5 4l-29 43q-2 2 -2 8z" />
<glyph unicode="&#x45e;" horiz-adv-x="948" d="M-131 -344q0 5 10 20l47 78q5 10 15 10q12 0 28 -12q68 -45 135 -45q41 0 76 15.5t61.5 44t42.5 51t33 53.5l70 129h-74h-4h-5t-4.5 1t-4.5 3t-3.5 6t-2.5 10l-123 844h-121q-19 0 -12 27l14 70q4 22 27 22h217q17 0 20 -18l115 -885h4l393 905q6 12 17 12q4 0 12 -4 l96 -39q10 -5 10 -12q0 -8 -4 -16l-383 -856q-79 -174 -141 -275q-39 -63 -83.5 -110.5t-110.5 -79.5q-72 -35 -154 -35q-103 0 -184 55q-29 18 -29 31zM362 1366v10q1 8 6 13t8.5 5.5t12.5 2.5l70 12q8 2 20 2q11 0 13 -6t2 -19v-12v-13.5v-13t0.5 -11t1 -11.5t2 -10.5 t3.5 -11t5.5 -10.5t7.5 -11q25 -33 78 -33q89 0 135 80q23 41 29 66q3 12 7.5 14.5t22.5 -0.5l82 -12q21 -5 21 -17q0 -5 -10 -32q-11 -25 -16.5 -36.5t-20.5 -33t-37 -45.5q-33 -36 -72 -55q-72 -37 -160 -37q-136 0 -186 98q-21 46 -25 127z" />
<glyph unicode="&#x45f;" horiz-adv-x="1093" d="M100 879q0 3 1.5 10t2.5 12l11 57l1 4q0 5 0.5 5.5t1 4t1.5 4t3 3t4.5 3t6 1t8.5 0.5h269q20 0 22 -15.5t-4 -27.5l-127 -592q-1 -7 -5 -26t-6.5 -31.5t-4.5 -31.5t-2 -36q0 -114 104 -114q54 0 109 26t92 58q24 21 39 38q66 82 106 267l94 446q4 21 21 25l106 26 q33 8 29 -16l-152 -711q-16 -78 -16 -106q0 -19 2 -29l2 -14h139q22 0 17 -27l-17 -72q-5 -20 -22 -20h-119q-86 0 -110 39q-19 27 -19 67v46v12h-4q-54 -74 -123 -121q-103 -72 -229 -72q-96 0 -152 64q-53 58 -53 151q0 38 18 119l119 559h-147q-17 0 -17 15zM375 -358 l84 243l96 70q17 12 27.5 6.5t5.5 -24.5l-58 -265q-2 -7 -8.5 -15t-13.5 -9l-96 -25q-12 -6 -27.5 -3.5t-9.5 22.5z" />
<glyph unicode="&#x490;" horiz-adv-x="960" d="M-39 14q0 3 8 31l17 61q4 21 22 21h135l244 1149h-137q-17 0 -17 14q0 3 7 31l16 61q4 21 25 21h669l47 215q4 22 25 22h94q19 0 19 -12q0 -2 -1 -4.5t-2 -6.5t-2 -7l-67 -324q-4 -20 -25 -20h-491l-242 -1139h164q7 0 10.5 -1.5t5.5 -8t-2 -19.5l-16 -78q-4 -20 -25 -20 h-462q-19 0 -19 14z" />
<glyph unicode="&#x491;" horiz-adv-x="706" d="M100 879q0 3 1.5 10t2.5 12l11 57l1 4q0 5 0.5 5.5t1 4t1.5 4t3 3t4.5 3t6 1t8.5 0.5h467l58 279q4 20 22 24l86 25q11 6 26 3.5t11 -22.5l-84 -403q-3 -19 -12 -23q-6 -2 -15 -2h-288l-160 -844q-4 -20 -25 -20h-108q-6 0 -10.5 4t-5.5 7t-1 5q0 13 4 29l158 819h-147 q-17 0 -17 15z" />
<glyph unicode="&#x2000;" horiz-adv-x="903" />
<glyph unicode="&#x2001;" horiz-adv-x="1806" />
<glyph unicode="&#x2002;" horiz-adv-x="903" />
<glyph unicode="&#x2003;" horiz-adv-x="1806" />
<glyph unicode="&#x2004;" horiz-adv-x="602" />
<glyph unicode="&#x2005;" horiz-adv-x="451" />
<glyph unicode="&#x2006;" horiz-adv-x="301" />
<glyph unicode="&#x2007;" horiz-adv-x="301" />
<glyph unicode="&#x2008;" horiz-adv-x="225" />
<glyph unicode="&#x2009;" horiz-adv-x="361" />
<glyph unicode="&#x200a;" horiz-adv-x="100" />
<glyph unicode="&#x2010;" horiz-adv-x="606" d="M53 453q-2 11 4 28l19 90q4 25 30 25h424q24 0 17 -33l-21 -96q-4 -17 -11 -21t-19 -4h-422q-19 0 -21 11z" />
<glyph unicode="&#x2011;" horiz-adv-x="606" d="M53 453q-2 11 4 28l19 90q4 25 30 25h424q24 0 17 -33l-21 -96q-4 -17 -11 -21t-19 -4h-422q-19 0 -21 11z" />
<glyph unicode="&#x2012;" horiz-adv-x="606" d="M53 453q-2 11 4 28l19 90q4 25 30 25h424q24 0 17 -33l-21 -96q-4 -17 -11 -21t-19 -4h-422q-19 0 -21 11z" />
<glyph unicode="&#x2013;" d="M56.5 475q0.5 7 4.5 21l19 69q0 1 1 4t1.5 5t2 4.5t2.5 3.5t3.5 3t5 3t6.5 1.5t9 0.5h860q23 0 12 -39l-18 -70q-3 -12 -9 -18t-8 -6h-10h-860q-13 0 -17.5 5.5t-4 12.5z" />
<glyph unicode="&#x2014;" horiz-adv-x="2048" d="M56.5 475q0.5 7 4.5 21l19 69q0 1 1 4t1.5 5t2 4.5t2.5 3.5t3.5 3t5 3t6.5 1.5t9 0.5h1884q23 0 12 -39l-18 -70q-3 -12 -9 -18t-8 -6h-10h-1884q-13 0 -17.5 5.5t-4 12.5z" />
<glyph unicode="&#x2018;" horiz-adv-x="417" d="M164 997q0 13 8 21l301 438q8 12 19 12q6 0 14 -4l43 -20q14 -7 14 -14q0 -5 -4 -13l-170 -413q-6 -13 -11.5 -17t-19.5 -4h-174q-8 0 -14 4t-6 10z" />
<glyph unicode="&#x2019;" horiz-adv-x="417" d="M145 1022q0 2 5 12l169 414q6 13 11.5 16.5t19.5 3.5h174q8 0 14.5 -4t6.5 -10q0 -12 -8 -20l-301 -439q-8 -12 -19 -12q-6 0 -14 4l-43 21q-14 9 -15 14z" />
<glyph unicode="&#x201a;" horiz-adv-x="417" d="M-96 -213q0 4 4 12l170 414q6 13 11.5 16.5t19.5 3.5h174q8 0 14 -4t6 -10q0 -12 -8 -20l-301 -439q-8 -12 -19 -12q-6 0 -14 4l-43 21q-14 7 -14 14z" />
<glyph unicode="&#x201c;" horiz-adv-x="950" d="M227 997q0 12 9 21l301 438q8 12 18 12q6 0 14 -4l43 -20q14 -9 15 -14q0 -5 -4 -13l-170 -413q-6 -13 -11.5 -17t-19.5 -4h-174q-8 0 -14.5 4t-6.5 10zM608 997q0 13 8 21l302 438q8 12 18 12q6 0 14 -4l43 -20q14 -9 15 -14q0 -5 -4 -13l-170 -413q-6 -13 -11.5 -17 t-19.5 -4h-174q-8 0 -14.5 4t-6.5 10z" />
<glyph unicode="&#x201d;" horiz-adv-x="1026" d="M256 1022q0 4 4 12l170 414q6 13 11.5 16.5t19.5 3.5h174q8 0 14 -4t6 -10q0 -12 -8 -20l-301 -439q-8 -12 -18 -12q-7 0 -15 4l-43 21q-14 7 -14 14zM637 1022q0 4 4 12l170 414q6 13 11.5 16.5t19.5 3.5h174q8 0 14 -4t6 -10q0 -12 -8 -20l-301 -439q-8 -12 -18 -12 q-7 0 -15 4l-43 21q-14 7 -14 14z" />
<glyph unicode="&#x201e;" horiz-adv-x="950" d="M-29 -213q0 4 4 12l170 414q6 13 11.5 16.5t19.5 3.5h174q8 0 14.5 -4t6.5 -10q0 -11 -9 -20l-301 -439q-8 -12 -18 -12q-6 0 -14 4l-43 21q-15 7 -15 14zM352 -213q0 4 4 12l170 414q6 13 11.5 16.5t19.5 3.5h174q8 0 14.5 -4t6.5 -10q0 -11 -9 -20l-301 -439 q-8 -12 -18 -12q-6 0 -14 4l-43 21q-15 7 -15 14z" />
<glyph unicode="&#x2026;" horiz-adv-x="2048" d="M125 131q0 54 38 92.5t93 38.5q56 0 93.5 -38t37.5 -93t-37.5 -93t-93.5 -38q-55 0 -93 38.5t-38 92.5zM809 131q0 54 38 92.5t93 38.5q54 0 92.5 -38.5t38.5 -92.5q0 -56 -38 -93.5t-93 -37.5t-93 38.5t-38 92.5zM1493 131q0 54 38.5 92.5t92.5 38.5t92.5 -38.5 t38.5 -92.5t-38.5 -92.5t-92.5 -38.5t-92.5 38.5t-38.5 92.5z" />
<glyph unicode="&#x202f;" horiz-adv-x="361" />
<glyph unicode="&#x205f;" horiz-adv-x="451" />
<glyph unicode="&#x2122;" horiz-adv-x="1527" d="M143 1120v195q0 24 25 24h498q24 0 24 -24v-195q0 -24 -24 -24h-56q-24 0 -24 24v117h-107v-602h78q25 0 25 -25v-43q0 -24 -25 -24h-281q-24 0 -24 24v43q0 25 24 25h78v602h-106v-117q0 -24 -25 -24h-55q-25 0 -25 24zM729 567v43q0 25 25 25h57l39 612h-74 q-24 0 -24 25v43q0 24 24 24h178q9 0 15 -3t7.5 -5t3.5 -8l3 -6l147 -412h5l147 416q4 18 23 18h186q25 0 25 -24v-45q0 -25 -25 -25h-74l35 -610h57q25 0 25 -25v-43q0 -24 -25 -24h-254q-24 0 -24 24v43q0 25 24 25h74l-14 485l-137 -372q-9 -29 -25 -29h-51q-13 0 -25 29 l-129 370l-18 -483h74q24 0 24 -25v-43q0 -24 -24 -24h-250q-25 0 -25 24z" />
<glyph unicode="&#x25fc;" horiz-adv-x="1000" d="M0 0v1000h1000v-1000h-1000z" />
</font>
</defs>
</svg>
